<svg xmlns="http://www.w3.org/2000/svg" xmlns:xlink="http://www.w3.org/1999/xlink" viewBox="0 0 62 62"><defs><style>.cls-1,.cls-10{fill:none;}.cls-2,.cls-4,.cls-5{isolation:isolate;}.cls-3{clip-path:url(#clip-path);}.cls-4{fill:#05273f;opacity:0.3;}.cls-5{fill:#303031;opacity:0.28;}.cls-6{fill:#e8e8e8;}.cls-7{fill:#434859;}.cls-8{clip-path:url(#clip-path-2);}.cls-9{fill:#4f5363;}.cls-10{stroke:#535167;stroke-width:0.6px;}.cls-11{opacity:0.1;mix-blend-mode:lighten;}</style><clipPath id="clip-path"><rect class="cls-1" width="62" height="62" rx="29.5"/></clipPath><clipPath id="clip-path-2"><polygon class="cls-1" points="14.67 19.31 53.75 19.31 53.75 68.86 33.01 68.86 14.67 19.31"/></clipPath></defs><title>97 login design</title><g class="cls-2"><g id="圖層_2" data-name="圖層 2"><g class="cls-3"><rect class="cls-4" width="62" height="62" rx="9.97"/><g id="Group_101" data-name="Group 101"><rect id="Rectangle_151" data-name="Rectangle 151" class="cls-5" x="-22.59" y="19.31" width="80.98" height="63.18" rx="7.34"/><rect id="Rectangle_143" data-name="Rectangle 143" class="cls-6" x="-22.59" y="15.24" width="80.98" height="63.18" rx="4.9"/><rect id="Rectangle_145" data-name="Rectangle 145" class="cls-7" x="-15.98" y="21.85" width="67.75" height="44.62" rx="2.45"/><g class="cls-8"><g id="Mask_Group_1" data-name="Mask Group 1"><rect id="Rectangle_152" data-name="Rectangle 152" class="cls-9" x="-15.98" y="21.85" width="67.75" height="44.62" rx="2.45"/></g></g><g id="Rectangle_146" data-name="Rectangle 146"><rect class="cls-1" x="-15.98" y="21.85" width="67.75" height="44.62" rx="2.45"/><rect class="cls-10" x="-15.25" y="22.58" width="66.28" height="43.15" rx="1.71"/></g><g class="cls-8"><g id="Mask_Group_1-2" data-name="Mask Group 1" class="cls-11"><rect id="Rectangle_152-2" data-name="Rectangle 152" class="cls-9" x="-15.98" y="21.85" width="67.75" height="44.62" rx="2.45"/></g></g></g><path class="cls-6" d="M5.39,42.72a2.89,2.89,0,0,0,1.15,3.63,3.39,3.39,0,0,0,2.91.44q1.63-.42,4.28-4.23a6.2,6.2,0,0,1-5.45-.89,6.79,6.79,0,0,1-3-4.35A6.64,6.64,0,0,1,6.39,32.1a7,7,0,0,1,4.88-3.23,8.46,8.46,0,0,1,6.14,1.65,8.78,8.78,0,0,1,3.22,3.67,7.69,7.69,0,0,1,.36,5,16.23,16.23,0,0,1-2.51,5.64,14.74,14.74,0,0,1-6.66,5.72,7.86,7.86,0,0,1-7.67-1q-4.91-3.33-3-8.65Zm10-9.06a3.14,3.14,0,0,0-2.58-.48,3.43,3.43,0,0,0-2.11,1.44,3.48,3.48,0,0,0-.59,2.46,3.07,3.07,0,0,0,1.41,2.19,3.17,3.17,0,0,0,2.62.5,3.45,3.45,0,0,0,2.12-1.43,3.36,3.36,0,0,0,.54-2.48A3.11,3.11,0,0,0,15.4,33.66Z"/><path class="cls-6" d="M45.19,50.12,43,53.44a23.13,23.13,0,0,0-5.58,2.27,23,23,0,0,0-5.72,4.15,30.51,30.51,0,0,0-3.38,3.92c-.21.32-.5.79-.87,1.42l-5-3.37a26.81,26.81,0,0,1,3.11-3.73,24.58,24.58,0,0,1,4.21-3.17,29.14,29.14,0,0,1,4.7-2.4,26.37,26.37,0,0,1,4.25-1.21L29.26,45l2.92-3.62Z"/><path class="cls-6" d="M20.5,57.1a2.84,2.84,0,1,1-.76-4A2.85,2.85,0,0,1,20.5,57.1Z"/></g></g></g></svg>