<svg id="圖層_1" data-name="圖層 1" xmlns="http://www.w3.org/2000/svg" xmlns:xlink="http://www.w3.org/1999/xlink" viewBox="0 0 62 62"><defs><style>.cls-1{fill:none;}.cls-2{clip-path:url(#clip-path);}.cls-3,.cls-7{fill:#fff;isolation:isolate;}.cls-3{opacity:0.8;}.cls-4{fill:#214960;}.cls-5{fill:#244c67;}.cls-6{fill:#afd3e0;}.cls-7{opacity:0.1;}.cls-8{clip-path:url(#clip-path-2);}.cls-9{fill:#aecfd7;}</style><clipPath id="clip-path"><path class="cls-1" d="M31,62h0A31,31,0,0,1,0,31H0A31,31,0,0,1,31,0h0A31,31,0,0,1,62,31h0A31,31,0,0,1,31,62Z"/></clipPath><clipPath id="clip-path-2"><rect class="cls-1" x="14.23" y="37.33" width="32.77" height="2.7"/></clipPath></defs><title>97 login design</title><g class="cls-2"><rect class="cls-3" width="62" height="62" rx="9.97"/><rect class="cls-4" x="4.73" y="31.37" width="52.54" height="41.71" rx="6.85"/><rect class="cls-5" x="8.4" y="32.87" width="44.28" height="36.02" rx="4.11"/><rect class="cls-6" x="14.36" y="38.69" width="32.36" height="24.51" rx="1.69"/><path class="cls-7" d="M46.5,63.2H36.16L27,38.69H46.5a.23.23,0,0,1,.23.23V63A.23.23,0,0,1,46.5,63.2Z"/><g class="cls-8"><path class="cls-9" d="M36.73,48.69V53.2H24.36V48.69H36.73m8.3-10h-29a1.69,1.69,0,0,0-1.69,1.69V61.51a1.69,1.69,0,0,0,1.69,1.69H45a1.7,1.7,0,0,0,1.7-1.69V40.38A1.7,1.7,0,0,0,45,38.69Z"/></g><path class="cls-5" d="M26.87,6.85l-2,7.66L32,8.16l3.66.95-5.41,4.81,2.2,11.75-4.21-1.08-1.43-7.92-3.15,2.75-1,3.74-3.76-1,4.2-16.32Z"/><path class="cls-5" d="M39.05,23.93l6.49,1.67-.83,3.23L34.35,26.17l4.2-16.32,3.87,1Z"/><path class="cls-5" d="M59.88,15.34l-.83,3.22-4-1L51.65,30.61l-3.88-1,3.37-13.09-4.07-1,.83-3.23Z"/></g></svg>