<svg xmlns="http://www.w3.org/2000/svg" viewBox="0 0 32 32"><defs><style>.cls-1,.cls-3,.cls-4{fill:none;}.cls-1,.cls-3{stroke:#fff;stroke-width:1.5px;}.cls-1{stroke-miterlimit:10;}.cls-2{fill:#537894;}.cls-3{stroke-linecap:round;}</style></defs><title>97 login design</title><g id="圖層_2" data-name="圖層 2"><path class="cls-1" d="M19,3H8.28a1,1,0,0,0-1,1V24a1,1,0,0,0,1,1H23.72a1,1,0,0,0,1-1V8.83a1,1,0,0,0-.27-.67L19.68,3.31A.91.91,0,0,0,19,3Z"/><path class="cls-1" d="M24.74,8.44H20.07a.67.67,0,0,1-.67-.67V3"/><circle id="Ellipse_13" data-name="Ellipse 13" class="cls-2" cx="22.58" cy="21.2" r="7.5"/><g id="Group_18" data-name="Group 18"><line id="Line_18" data-name="Line 18" class="cls-3" x1="18.08" y1="20.86" x2="26.9" y2="20.86"/><line id="Line_19" data-name="Line 19" class="cls-3" x1="22.49" y1="25.03" x2="22.49" y2="16.7"/></g><rect class="cls-4" width="32" height="32"/></g></svg>