<svg xmlns="http://www.w3.org/2000/svg" viewBox="0 0 32 32"><defs><style>.cls-1{fill:none;}.cls-2,.cls-3{fill:#fff;}.cls-2{stroke:#fff;stroke-miterlimit:10;stroke-width:0.5px;}</style></defs><title>97 login design</title><g id="圖層_2" data-name="圖層 2"><rect class="cls-1" width="32" height="32"/><path class="cls-2" d="M24.38,10.25h-12a.75.75,0,0,1,0-1.5h12a.75.75,0,0,1,0,1.5Z"/><path class="cls-2" d="M24.38,16.75h-12a.75.75,0,0,1,0-1.5h12a.75.75,0,0,1,0,1.5Z"/><path class="cls-2" d="M24.38,23.25h-12a.75.75,0,0,1,0-1.5h12a.75.75,0,0,1,0,1.5Z"/><circle class="cls-3" cx="8.37" cy="9.5" r="1.5"/><circle class="cls-3" cx="8.37" cy="16" r="1.5"/><circle class="cls-3" cx="8.37" cy="22.5" r="1.5"/></g></svg>