<svg xmlns="http://www.w3.org/2000/svg" viewBox="0 0 30 30"><defs><style>.cls-1,.cls-2{fill:none;}.cls-1{stroke:#fff;}</style></defs><title>97 login design</title><g id="圖層_2" data-name="圖層 2"><path class="cls-1" d="M14,3h3a0,0,0,0,1,0,0V18a0,0,0,0,1,0,0H14a1,1,0,0,1-1-1V4A1,1,0,0,1,14,3Z" transform="translate(25.5 -4.5) rotate(90)"/><path class="cls-1" d="M7.5,15.5h6a0,0,0,0,1,0,0v5a1,1,0,0,1-1,1h-5a0,0,0,0,1,0,0v-6A0,0,0,0,1,7.5,15.5Z" transform="translate(29 8) rotate(90)"/><path class="cls-1" d="M16.5,15.5h5a1,1,0,0,1,1,1v5a0,0,0,0,1,0,0h-6a0,0,0,0,1,0,0v-6A0,0,0,0,1,16.5,15.5Z" transform="translate(38 -1) rotate(90)"/><rect class="cls-2" width="30" height="30"/></g></svg>