<svg xmlns="http://www.w3.org/2000/svg" viewBox="0 0 78 85"><defs><style>.cls-1{fill:#f9f9f9;}.cls-2{fill:#eaeaea;}.cls-3{fill:#537895;}.cls-4{isolation:isolate;}.cls-5{fill:#fff;}.cls-6{fill:none;}</style></defs><title>97 login design</title><g id="圖層_2" data-name="圖層 2"><path id="Path_55" data-name="Path 55" class="cls-1" d="M10.22,83.63H46.89a3.53,3.53,0,0,0,2.49-1L69.75,62.23a3.53,3.53,0,0,0,1-2.49V4.37a3,3,0,0,0-3-3H10.22a3,3,0,0,0-3,3V80.63A3,3,0,0,0,10.22,83.63Z"/><path class="cls-2" d="M69.32,60.77h-19a3,3,0,0,0-3,3v19l-.6.86a5.44,5.44,0,0,0,3.11-1.48C51.32,80.77,69,63,69,63a6.91,6.91,0,0,0,1.8-3Z"/><rect class="cls-3" x="1.32" y="15.77" width="50.84" height="23" rx="3.78"/><g id="JSON" class="cls-4"><g class="cls-4"><path class="cls-5" d="M10.65,28.43a5.41,5.41,0,0,1-1.11,3.66,4,4,0,0,1-3.2,1.27A4.49,4.49,0,0,1,4.6,33V30.52A2.5,2.5,0,0,0,6.15,31C7.37,31,8,30.14,8,28.32V21.26h2.67Z"/><path class="cls-5" d="M12.7,32.69V30A5.08,5.08,0,0,0,16,31.25a3.84,3.84,0,0,0,.88-.09,2.3,2.3,0,0,0,.63-.25,1.25,1.25,0,0,0,.38-.38,1,1,0,0,0,.12-.48,1,1,0,0,0-.2-.62,2,2,0,0,0-.54-.51,6.72,6.72,0,0,0-.82-.45l-1-.44a5.13,5.13,0,0,1-2.07-1.41,3.1,3.1,0,0,1-.69-2A3.31,3.31,0,0,1,13,23a3.16,3.16,0,0,1,1-1.1,4.35,4.35,0,0,1,1.49-.63,7.38,7.38,0,0,1,1.79-.21,9.91,9.91,0,0,1,1.64.12,6,6,0,0,1,1.33.34V24a4.18,4.18,0,0,0-.66-.37,5.59,5.59,0,0,0-.72-.26,5.11,5.11,0,0,0-.74-.15,5.91,5.91,0,0,0-.7,0,3.52,3.52,0,0,0-.83.09,2,2,0,0,0-.63.24,1.22,1.22,0,0,0-.4.38.91.91,0,0,0-.14.49.93.93,0,0,0,.16.54,1.83,1.83,0,0,0,.44.44,5.55,5.55,0,0,0,.71.42l.94.42a11.75,11.75,0,0,1,1.28.63,4.67,4.67,0,0,1,1,.76,2.88,2.88,0,0,1,.62,1,3.35,3.35,0,0,1,.22,1.27,3.41,3.41,0,0,1-.38,1.67,3,3,0,0,1-1,1.09,4.42,4.42,0,0,1-1.51.6,8.1,8.1,0,0,1-1.81.19,10.13,10.13,0,0,1-1.86-.17A5.61,5.61,0,0,1,12.7,32.69Z"/><path class="cls-5" d="M27.79,33.36a5.51,5.51,0,0,1-4.16-1.67A5.92,5.92,0,0,1,22,27.36a6.39,6.39,0,0,1,1.63-4.56A5.66,5.66,0,0,1,28,21.06a5.4,5.4,0,0,1,4.11,1.67,6.13,6.13,0,0,1,1.57,4.39A6.27,6.27,0,0,1,32,31.64,5.59,5.59,0,0,1,27.79,33.36Zm.11-10a2.71,2.71,0,0,0-2.24,1.05,4.44,4.44,0,0,0-.82,2.8,4.36,4.36,0,0,0,.82,2.8A2.87,2.87,0,0,0,30,30a4.27,4.27,0,0,0,.81-2.77,4.64,4.64,0,0,0-.78-2.87A2.57,2.57,0,0,0,27.9,23.37Z"/><path class="cls-5" d="M46.33,33.15h-2.7l-4.9-7.47a9.61,9.61,0,0,1-.6-1h0c0,.42.06,1.07.06,1.93v6.53H35.64V21.26h2.88l4.72,7.24c.21.32.41.65.59,1h0a11.5,11.5,0,0,1-.07-1.63V21.26h2.53Z"/></g></g><rect class="cls-6" width="78" height="85"/></g></svg>