<svg id="圖層_1" data-name="圖層 1" xmlns="http://www.w3.org/2000/svg" xmlns:xlink="http://www.w3.org/1999/xlink" viewBox="0 0 520 440"><defs><style>.cls-1,.cls-11,.cls-14,.cls-21,.cls-26{fill:none;}.cls-2{fill:url(#未命名漸層_18);}.cls-3{fill:#96b0c8;}.cls-4{opacity:0.9;}.cls-5{fill:url(#未命名漸層_2);}.cls-6,.cls-9{fill:#fff;}.cls-7{fill:#afd3e0;}.cls-8{fill:#ced6e1;}.cls-9{opacity:0.1;}.cls-13,.cls-20,.cls-25,.cls-9{isolation:isolate;}.cls-10{clip-path:url(#clip-path);}.cls-11{stroke:#aecfd7;stroke-width:3px;}.cls-11,.cls-14,.cls-21,.cls-26{stroke-miterlimit:10;}.cls-12{fill:#9bc6d1;}.cls-13{opacity:0.8;fill:url(#未命名漸層_28);}.cls-14,.cls-21,.cls-26{stroke:#afd3e8;}.cls-14{stroke-width:2px;}.cls-15{fill:#244c67;}.cls-16{fill:#bfcbdc;}.cls-17{fill:#537894;}.cls-18{fill:#edf2f8;}.cls-19{fill:#81a6c5;}.cls-20{opacity:0.7;fill:url(#未命名漸層_29);}.cls-21{stroke-width:2.5px;}.cls-22{fill:#beccdc;}.cls-23{fill:#e0e8f3;}.cls-24{fill:#babcbe;}.cls-25{fill:url(#未命名漸層_31);}.cls-26{stroke-width:1.3px;}</style><linearGradient id="未命名漸層_18" x1="1461.54" y1="-697.92" x2="1462.44" y2="-698.13" gradientTransform="matrix(486.74, 0, 0, -389.98, -711338.82, -271990.71)" gradientUnits="userSpaceOnUse"><stop offset="0" stop-color="#537894"/><stop offset="1" stop-color="#81a6c5"/></linearGradient><linearGradient id="未命名漸層_2" x1="1457.18" y1="-707.84" x2="1457.51" y2="-706.75" gradientTransform="matrix(211.23, 0, 0, -109.6, -307445.39, -77317.48)" gradientUnits="userSpaceOnUse"><stop offset="0" stop-color="#dce3eb"/><stop offset="1" stop-color="#fff"/></linearGradient><clipPath id="clip-path"><rect class="cls-1" x="124.81" y="104.15" width="189.95" height="13"/></clipPath><radialGradient id="未命名漸層_28" cx="-21666.65" cy="-137645.9" r="397.06" gradientTransform="matrix(0.07, 0, 0, -0.01, 1953.73, -1077.84)" gradientUnits="userSpaceOnUse"><stop offset="0" stop-color="#244c67"/><stop offset="1" stop-color="#537894" stop-opacity="0.4"/></radialGradient><radialGradient id="未命名漸層_29" cx="-44082.86" cy="-330536.29" r="1579.94" gradientTransform="matrix(0.04, 0, 0, 0, 1919.03, -968.1)" xlink:href="#未命名漸層_28"/><radialGradient id="未命名漸層_31" cx="-16917.14" cy="-112550.93" r="259.18" gradientTransform="matrix(0.08, 0, 0, -0.01, 1392.16, -1007.28)" gradientUnits="userSpaceOnUse"><stop offset="0" stop-color="#244c67" stop-opacity="0.8"/><stop offset="1" stop-color="#537894" stop-opacity="0.4"/></radialGradient></defs><title>97 login design</title><g id="Group_166" data-name="Group 166"><path id="Path_59" data-name="Path 59" class="cls-2" d="M62.16,125.85c42-55.57,98.66,13.61,154.23,0s76-97,140-66.34-9.64,112.27,10.21,150.26S472.1,223.37,483.44,267,350.76,333.94,331.49,369.66,247,443.94,194.15,341.76c-33.23-64.28-78.69,10.32-121.78-44.11S36.25,160.17,62.16,125.85Z"/><g id="Group_149" data-name="Group 149"><path id="Path_60" data-name="Path 60" class="cls-3" d="M147.22,374.19a1.81,1.81,0,0,1-.12-3.61h0a41.9,41.9,0,0,0,7.87-1.25l8.71-2.3a1.8,1.8,0,0,1,2.21,1.28h0a1.81,1.81,0,0,1-1.28,2.21l-8.72,2.3a45.76,45.76,0,0,1-8.55,1.37Zm-11.54-.36-.22,0A96,96,0,0,1,118.22,370a1.82,1.82,0,0,1-1.19-2.26h0a1.79,1.79,0,0,1,2.25-1.18h0a93.31,93.31,0,0,0,16.59,3.68,1.79,1.79,0,0,1,1.58,2h0a1.8,1.8,0,0,1-1.79,1.59Zm250.88-5a129.72,129.72,0,0,1-13.36-.75,1.81,1.81,0,0,1-1.6-2h0a1.79,1.79,0,0,1,2-1.6,115.6,115.6,0,0,0,17.05.64,1.83,1.83,0,0,1,1.88,1.73,1.8,1.8,0,0,1-1.72,1.88h0c-1.36.06-2.78.09-4.22.09Zm-211.24-1.2a1.81,1.81,0,0,1-.46-3.55c6.33-1.68,11.6-3.08,16.78-4.42a1.81,1.81,0,0,1,.91,3.5c-5.17,1.34-10.44,2.73-16.77,4.41a1.76,1.76,0,0,1-.46.06Zm226.85-.27a1.8,1.8,0,0,1-.38-3.57,36.84,36.84,0,0,0,15-6.51,1.8,1.8,0,1,1,2.21,2.85h0a40.35,40.35,0,0,1-16.48,7.19,1.67,1.67,0,0,1-.38,0ZM362,366.47a1.55,1.55,0,0,1-.31,0c-5.36-.91-11.11-2.12-17.1-3.57a1.81,1.81,0,0,1-1.33-2.18h0a1.81,1.81,0,0,1,2.19-1.33c5.9,1.43,11.57,2.62,16.85,3.52a1.81,1.81,0,0,1,1.47,2.09h0a1.79,1.79,0,0,1-1.77,1.5Zm-254-.37a1.69,1.69,0,0,1-.7-.15,151.22,151.22,0,0,1-15.77-7.71,1.8,1.8,0,0,1,1.76-3.15,148.09,148.09,0,0,0,15.4,7.53,1.82,1.82,0,0,1,1,2.37h0a1.8,1.8,0,0,1-1.66,1.1Zm95.4-5.76a1.81,1.81,0,0,1-.44-3.56h0c6.2-1.55,11.73-2.86,16.92-4a1.8,1.8,0,0,1,.79,3.52c-5.15,1.15-10.66,2.46-16.83,4a1.61,1.61,0,0,1-.44.06ZM333.79,360a2,2,0,0,1-.49-.06c-5.33-1.49-10.93-3.19-16.67-5a1.8,1.8,0,0,1-1.16-2.27h0a1.81,1.81,0,0,1,2.27-1.17c5.69,1.84,11.25,3.52,16.53,5a1.81,1.81,0,0,1,1.26,2.22h0a1.81,1.81,0,0,1-1.74,1.32Zm-102.31-6.06a1.8,1.8,0,0,1-.35-3.57c6.15-1.22,11.77-2.19,17.19-3a1.8,1.8,0,0,1,.51,3.57h0c-5.35.77-10.91,1.72-17,2.93a2,2,0,0,1-.35,0Zm74.57-2a1.83,1.83,0,0,1-.4-.05,123.27,123.27,0,0,0-16.88-2.56,1.79,1.79,0,0,1-1.65-1.95h0a1.81,1.81,0,0,1,1.95-1.65,127.73,127.73,0,0,1,17.38,2.64,1.8,1.8,0,0,1-.4,3.56Zm119.31-.13a1.72,1.72,0,0,1-.86-.22,1.81,1.81,0,0,1-.73-2.45h0a36.1,36.1,0,0,0,4-15.88,1.8,1.8,0,1,1,3.6.15,39.58,39.58,0,0,1-4.38,17.46,1.8,1.8,0,0,1-1.58.94Zm-165.31-2.14a1.8,1.8,0,0,1-.17-3.6h0c5.91-.55,11.63-.83,17-.83h.49a1.81,1.81,0,1,1,0,3.61h-.48c-5.27,0-10.88.28-16.67.82ZM59.87,334.39a1.76,1.76,0,0,1-1.26-.51A111.67,111.67,0,0,1,47,320.64a1.81,1.81,0,1,1,2.9-2.15h0A108.78,108.78,0,0,0,61.14,331.3a1.8,1.8,0,0,1,0,2.55,1.77,1.77,0,0,1-1.3.54Zm369.06-10.83a1.81,1.81,0,0,1-1.79-1.57,113,113,0,0,0-3.61-16.67,1.82,1.82,0,0,1,1.23-2.24h0a1.81,1.81,0,0,1,2.23,1.23h0a116.49,116.49,0,0,1,3.72,17.21,1.8,1.8,0,0,1-1.56,2l-.23,0ZM42.22,311.62a1.8,1.8,0,0,1-1.59-1,49.46,49.46,0,0,1-5.69-17,1.8,1.8,0,0,1,3.58-.46h0A46.13,46.13,0,0,0,43.82,309a1.8,1.8,0,0,1-.75,2.44A1.78,1.78,0,0,1,42.22,311.62Zm379.45-16a1.82,1.82,0,0,1-1.7-1.19c-1.82-5-4-10.41-6.47-16a1.81,1.81,0,0,1,3.3-1.47h0c2.51,5.62,4.71,11.07,6.57,16.18a1.82,1.82,0,0,1-1.08,2.32,1.87,1.87,0,0,1-.62.1ZM37.36,283.81a2.12,2.12,0,0,1-.44-.05,1.82,1.82,0,0,1-1.31-2.2h0l.15-.54a156.19,156.19,0,0,1,5.53-16.61,1.82,1.82,0,0,1,2.35-1,1.79,1.79,0,0,1,1,2.35h0A151.13,151.13,0,0,0,39.24,282c-.05.16-.09.32-.13.47a1.81,1.81,0,0,1-1.75,1.36Zm372.91-14.73a1.8,1.8,0,0,1-1.62-1c-2.4-4.92-5.06-10.09-7.9-15.36a1.81,1.81,0,0,1,.72-2.45h0a1.82,1.82,0,0,1,2.45.73c2.87,5.32,5.55,10.53,8,15.49a1.8,1.8,0,0,1-1.62,2.6ZM47.76,256.4a1.71,1.71,0,0,1-.83-.21,1.8,1.8,0,0,1-.77-2.43,94.78,94.78,0,0,1,9.48-14.84,1.79,1.79,0,0,1,2.53-.31h0a1.8,1.8,0,0,1,.31,2.54h0a91.38,91.38,0,0,0-9.12,14.27A1.81,1.81,0,0,1,47.76,256.4Zm349.11-12.93a1.85,1.85,0,0,1-1.64-1.05,48.46,48.46,0,0,1-4.38-17.37,1.8,1.8,0,1,1,3.6-.21,44.81,44.81,0,0,0,4.06,16.07,1.8,1.8,0,0,1-.88,2.39h0a1.83,1.83,0,0,1-.76.17ZM64.8,233.29a1.81,1.81,0,0,1-1.25-3.11,88.4,88.4,0,0,1,13.93-10.82,1.81,1.81,0,0,1,2.49.55h0a1.8,1.8,0,0,1-.55,2.49,84.1,84.1,0,0,0-13.37,10.38,1.79,1.79,0,0,1-1.25.5ZM88.49,217a1.8,1.8,0,0,1-.83-3.41c4-2.09,8.15-4,12.12-5.86,1.2-.55,2.39-1.11,3.57-1.67a1.81,1.81,0,1,1,1.54,3.27h0L101.31,211c-3.94,1.84-8,3.74-12,5.79a1.88,1.88,0,0,1-.83.2Zm304.75-1.75a1.27,1.27,0,0,1-.28,0,1.81,1.81,0,0,1-1.51-2.06h0a78.67,78.67,0,0,1,4.84-17,1.8,1.8,0,0,1,2.34-1h0a1.8,1.8,0,0,1,1,2.34A75.28,75.28,0,0,0,395,213.71a1.81,1.81,0,0,1-1.78,1.52ZM114.47,204.34a1.83,1.83,0,0,1-1.6-1,1.81,1.81,0,0,1,.74-2.45h0a86.28,86.28,0,0,0,14.18-9.28,1.8,1.8,0,0,1,2.54.24h0a1.81,1.81,0,0,1-.25,2.54h0a89.53,89.53,0,0,1-14.76,9.67A1.79,1.79,0,0,1,114.47,204.34Zm288.29-16.27a1.81,1.81,0,0,1-1.61-2.62c2.34-4.61,5.07-9.45,8.59-15.24a1.8,1.8,0,0,1,2.48-.6h0a1.8,1.8,0,0,1,.6,2.48h0c-3.47,5.71-6.16,10.47-8.45,15a1.8,1.8,0,0,1-1.61,1Zm-265.6-1.27a1.85,1.85,0,0,1-1.17-.43,1.81,1.81,0,0,1-.2-2.55h0a66.4,66.4,0,0,0,8.4-12.59c.25-.5.51-1,.75-1.5a1.8,1.8,0,0,1,2.41-.84h0a1.81,1.81,0,0,1,.84,2.41c-.26.53-.52,1.06-.8,1.58a68.76,68.76,0,0,1-8.86,13.28,1.77,1.77,0,0,1-1.37.64Zm280.25-23.67a1.81,1.81,0,0,1-1.52-2.77L418,157c2.38-3.74,4.85-7.6,7.14-11.34a1.79,1.79,0,0,1,2.48-.59h0a1.8,1.8,0,0,1,.59,2.48h0c-2.31,3.76-4.78,7.64-7.17,11.4l-2.11,3.31a1.8,1.8,0,0,1-1.52.84Zm-266.76-1.61a1.61,1.61,0,0,1-.49-.07,1.8,1.8,0,0,1-1.25-2.22h0a76.21,76.21,0,0,0,2.65-16.7,1.81,1.81,0,0,1,1.89-1.71h0a1.8,1.8,0,0,1,1.71,1.9h0a79.73,79.73,0,0,1-2.78,17.49,1.83,1.83,0,0,1-1.74,1.32Zm281.88-23.05a1.87,1.87,0,0,1-.87-.22,1.82,1.82,0,0,1-.71-2.46h0a105,105,0,0,0,7.16-15.45,1.81,1.81,0,1,1,3.41,1.2,108.3,108.3,0,0,1-7.41,16A1.79,1.79,0,0,1,432.53,138.47Zm-279.15-5.6a1.8,1.8,0,0,1-1.8-1.72c-.27-6.05-.94-12.06-1.55-17.14a1.81,1.81,0,0,1,1.58-2h0a1.82,1.82,0,0,1,2,1.58c.62,5.15,1.29,11.24,1.57,17.41a1.79,1.79,0,0,1-1.72,1.88h-.09Zm289.16-21.33h-.21a1.81,1.81,0,0,1-1.59-2,34.6,34.6,0,0,0,.25-4.07,27.61,27.61,0,0,0-2.56-11.89,1.81,1.81,0,0,1,3.28-1.51,31.59,31.59,0,0,1,2.89,13.4,39.64,39.64,0,0,1-.27,4.49A1.81,1.81,0,0,1,442.54,111.54ZM150.4,104.12a1.8,1.8,0,0,1-1.79-1.59c-.62-5.26-1.28-11.45-1.43-17.45a1.8,1.8,0,0,1,1.76-1.85H149a1.8,1.8,0,0,1,1.8,1.76c.14,5.85.79,11.93,1.41,17.11a1.81,1.81,0,0,1-1.58,2h-.22ZM326.9,94.07h-.09a50.37,50.37,0,0,1-9.07-1.33,49.06,49.06,0,0,1-8.33-2.86,1.81,1.81,0,0,1-.91-2.39h0a1.79,1.79,0,0,1,2.38-.91,45.48,45.48,0,0,0,7.7,2.65A47,47,0,0,0,327,90.46a1.81,1.81,0,0,1,1.71,1.9h0A1.82,1.82,0,0,1,326.9,94.07Zm11.5-.78a1.81,1.81,0,0,1-.33-3.58h0a70,70,0,0,0,16-5.26,1.8,1.8,0,1,1,1.48,3.29h0a72.94,72.94,0,0,1-16.85,5.52A1.84,1.84,0,0,1,338.4,93.29Zm95.07-8.1a1.78,1.78,0,0,1-1.3-.55,55.45,55.45,0,0,0-10.75-8.43c-.89-.55-1.78-1.07-2.67-1.54a1.81,1.81,0,0,1-.74-2.45h0a1.82,1.82,0,0,1,2.45-.73c1,.51,1.91,1.06,2.85,1.64a59.39,59.39,0,0,1,11.46,9,1.82,1.82,0,0,1-1.3,3.07Zm-133.4-.79a1.76,1.76,0,0,1-1-.3,141.52,141.52,0,0,1-13.9-10.75,1.8,1.8,0,0,1-.19-2.54h0a1.81,1.81,0,0,1,2.55-.2h0a139.88,139.88,0,0,0,13.53,10.47,1.8,1.8,0,0,1,.51,2.5,1.82,1.82,0,0,1-1.5.82Zm65.15-1.61a1.81,1.81,0,0,1-.84-3.41h0l2.46-1.29c4.31-2.26,8.76-4.59,13.17-6.52a1.81,1.81,0,1,1,1.45,3.31c-4.29,1.87-8.49,4.08-12.94,6.41l-2.47,1.29a1.82,1.82,0,0,1-.83.21ZM149.48,75.3l-.22,0a1.81,1.81,0,0,1-1.58-2h0a47.9,47.9,0,0,1,5.22-17.12,1.8,1.8,0,1,1,3.18,1.7,44.44,44.44,0,0,0-4.81,15.86,1.8,1.8,0,0,1-1.79,1.59Zm242.16-4.07a1.81,1.81,0,0,1-.43-3.56h0a42.65,42.65,0,0,1,10.06-1.26,37.82,37.82,0,0,1,7.93.85,1.81,1.81,0,0,1-.76,3.53,33.92,33.92,0,0,0-7.17-.77,39.12,39.12,0,0,0-9.21,1.16,3,3,0,0,1-.42.06ZM277.7,66.11a1.79,1.79,0,0,1-1.21-.46l-1.89-1.71c-3.58-3.24-7.29-6.6-11-9.82a1.79,1.79,0,0,1-.19-2.54h0a1.8,1.8,0,0,1,2.54-.19h0c3.77,3.25,7.5,6.62,11.1,9.88l1.88,1.7a1.82,1.82,0,0,1-1.21,3.16ZM161.3,49.52a1.76,1.76,0,0,1-1.25-.51,1.8,1.8,0,0,1-.05-2.55h0a59.54,59.54,0,0,1,14.29-10.63,1.8,1.8,0,0,1,2.45.72h0A1.81,1.81,0,0,1,176,39h0A55.77,55.77,0,0,0,162.6,49a1.82,1.82,0,0,1-1.3.55Zm94.48-2.27a1.79,1.79,0,0,1-1.09-.37,108.7,108.7,0,0,0-14.24-9.38,1.8,1.8,0,0,1-.72-2.44h0a1.8,1.8,0,0,1,2.44-.72h0A112.65,112.65,0,0,1,256.88,44a1.81,1.81,0,0,1,.34,2.53h0a1.8,1.8,0,0,1-1.44.71ZM185.64,34.37a1.81,1.81,0,0,1-.66-3.49h0a75.63,75.63,0,0,1,17.14-4.53,1.8,1.8,0,0,1,2,1.54h0a1.8,1.8,0,0,1-1.55,2h0a71.46,71.46,0,0,0-16.32,4.32,1.82,1.82,0,0,1-.65.12ZM230.8,33a1.78,1.78,0,0,1-.61-.11,58.22,58.22,0,0,0-16.4-3.39,1.79,1.79,0,0,1-1.69-1.9h0a1.79,1.79,0,0,1,1.9-1.69h0a62.41,62.41,0,0,1,17.4,3.59A1.81,1.81,0,0,1,230.8,33Z"/></g><g id="Group_150" data-name="Group 150" class="cls-4"><path id="Path_61" data-name="Path 61" class="cls-5" d="M306.78,236.31H307c16.21.88,32.72,0,49,0h93.17s10.94.71,17.31-5.2c5.81-5.4,8.83-13.5,9.33-22a35.71,35.71,0,0,0-40.37-37.46c-2.34-18.37-19.39-33.26-40.9-34.52-16.21-1-30.79,6.08-38.92,17.28a29.55,29.55,0,0,0-9.76-2.25c-14.8-.87-31.53,9.21-30.25,27.75C279.76,177.33,270.46,234.12,306.78,236.31Z"/></g><g id="Group_154" data-name="Group 154"><rect id="Rectangle_239" data-name="Rectangle 239" class="cls-6" x="108.06" y="98.72" width="223.45" height="166.7" rx="7.88"/><rect id="Rectangle_240" data-name="Rectangle 240" class="cls-7" x="124.91" y="114.68" width="189.75" height="117.63" rx="3.36"/><g id="Group_151" data-name="Group 151"><rect id="Rectangle_241" data-name="Rectangle 241" class="cls-8" x="124.91" y="239.71" width="26.6" height="15.07" rx="1.75"/><rect id="Rectangle_242" data-name="Rectangle 242" class="cls-8" x="165.7" y="239.71" width="26.6" height="15.07" rx="1.75"/><rect id="Rectangle_243" data-name="Rectangle 243" class="cls-8" x="206.48" y="239.71" width="26.6" height="15.07" rx="1.75"/><rect id="Rectangle_244" data-name="Rectangle 244" class="cls-8" x="247.27" y="239.71" width="26.6" height="15.07" rx="1.75"/></g><path id="Path_62" data-name="Path 62" class="cls-9" d="M323.83,265.42H262.71l-72.9-166.7h134a7.68,7.68,0,0,1,7.68,7.68h0V257.75A7.67,7.67,0,0,1,323.83,265.42Z"/><g id="Group_153" data-name="Group 153"><g class="cls-10"><g id="Group_152" data-name="Group 152"><g id="Rectangle_245" data-name="Rectangle 245"><rect class="cls-1" x="124.91" y="114.68" width="189.75" height="117.63" rx="3.36"/><rect class="cls-11" x="126.27" y="116.05" width="187.02" height="114.91" rx="1.99"/></g></g></g></g><path class="cls-12" d="M270.78,139.39a2.94,2.94,0,0,0,3.34,2,3.46,3.46,0,0,0,2.49-1.66c.63-1,.74-3,.33-6.1a6.26,6.26,0,0,1-4.7,3,6.92,6.92,0,0,1-5.26-1.2,6.7,6.7,0,0,1-2.69-4.7,7.13,7.13,0,0,1,1.45-5.76,8.63,8.63,0,0,1,5.75-3,9.06,9.06,0,0,1,4.93.56,7.91,7.91,0,0,1,3.67,3.51,16.57,16.57,0,0,1,2,6,15,15,0,0,1-1.1,8.85,7.94,7.94,0,0,1-6.48,4.44q-6,.85-8.2-4.42Zm1.34-13.64a3.17,3.17,0,0,0-2.27,1.4,3.58,3.58,0,0,0,.64,4.77,3,3,0,0,0,2.55.68,3.17,3.17,0,0,0,2.31-1.41,3.46,3.46,0,0,0-.67-4.75A3.16,3.16,0,0,0,272.12,125.75Z"/><path class="cls-12" d="M308,137l-1,3.94a23.7,23.7,0,0,0-4.52,4.12,23.11,23.11,0,0,0-4,5.95,30.26,30.26,0,0,0-1.85,4.93c-.09.38-.2.93-.34,1.65l-5.93-1.46a27.21,27.21,0,0,1,1.66-4.64A24.64,24.64,0,0,1,295,147a28.14,28.14,0,0,1,3.64-3.93,25.85,25.85,0,0,1,3.63-2.64L291,137.67l1.52-4.48Z"/><circle class="cls-12" cx="284.45" cy="146.78" r="3.23"/></g><ellipse id="Ellipse_25" data-name="Ellipse 25" class="cls-13" cx="416.6" cy="298.79" rx="25.28" ry="1.81"/><ellipse id="Ellipse_26" data-name="Ellipse 26" class="cls-14" cx="415.15" cy="293.37" rx="41.17" ry="9.39"/><g id="Group_156" data-name="Group 156"><g id="Group_155" data-name="Group 155"><path id="Rectangle_247" data-name="Rectangle 247" class="cls-15" d="M395.82,222.24h41.79a4.06,4.06,0,0,1,4.06,4.06v63.32a4.06,4.06,0,0,1-4.06,4.06H395.82a4.07,4.07,0,0,1-4.07-4.06h0V226.3A4.07,4.07,0,0,1,395.82,222.24Z"/><rect id="Rectangle_248" data-name="Rectangle 248" class="cls-7" x="395.16" y="229.19" width="43.12" height="57.54"/><path id="Path_63" data-name="Path 63" class="cls-16" d="M420.08,290.39a1.18,1.18,0,0,1-1.18,1.18h-3.72a1.18,1.18,0,0,1-1.18-1.18h0a1.18,1.18,0,0,1,1.18-1.18h3.72a1.18,1.18,0,0,1,1.18,1.18Z"/></g><path id="Path_64" data-name="Path 64" class="cls-9" d="M436.86,293.68h1.59a3.23,3.23,0,0,0,3.23-3.22h0v-65a3.23,3.23,0,0,0-3.23-3.23H395a3.1,3.1,0,0,0-1.13.21Z"/></g><path id="Path_65" data-name="Path 65" class="cls-17" d="M395.08,189.51l-13.87-16-13.88,16h9.54v18.65h8.67V189.51Z"/><g id="Group_158" data-name="Group 158"><rect id="Rectangle_249" data-name="Rectangle 249" class="cls-18" x="273.62" y="221.57" width="96.06" height="74.71" rx="4.69" transform="translate(-3.8 513.05) rotate(-76.82)"/><rect id="Rectangle_250" data-name="Rectangle 250" class="cls-6" x="274.69" y="223.3" width="96.06" height="74.71" rx="4.69" transform="translate(-4.66 515.44) rotate(-76.82)"/><g id="Group_157" data-name="Group 157"><rect id="Rectangle_251" data-name="Rectangle 251" class="cls-16" x="329.1" y="197.62" width="3.61" height="51.28" transform="translate(38.07 494.54) rotate(-76.82)"/><rect id="Rectangle_252" data-name="Rectangle 252" class="cls-16" x="323.13" y="212.08" width="3.61" height="44.78" transform="translate(22.55 497.39) rotate(-76.82)"/><rect id="Rectangle_253" data-name="Rectangle 253" class="cls-19" x="306.88" y="230.12" width="3.61" height="14.45" transform="translate(7.21 483.78) rotate(-76.82)"/><rect id="Rectangle_254" data-name="Rectangle 254" class="cls-16" x="325.17" y="235.13" width="3.61" height="13" transform="translate(17.15 504.89) rotate(-76.82)"/><rect id="Rectangle_255" data-name="Rectangle 255" class="cls-16" x="328.2" y="250.67" width="3.61" height="13" transform="translate(4.36 519.84) rotate(-76.82)"/><rect id="Rectangle_256" data-name="Rectangle 256" class="cls-7" x="340.38" y="268.36" width="3.61" height="13" transform="translate(-3.46 545.36) rotate(-76.82)"/><rect id="Rectangle_257" data-name="Rectangle 257" class="cls-19" x="341.69" y="237.19" width="3.61" height="16.61" transform="translate(26.14 523.97) rotate(-76.82)"/><rect id="Rectangle_258" data-name="Rectangle 258" class="cls-7" x="318.95" y="226.28" width="3.61" height="42.61" transform="translate(6.55 503.44) rotate(-76.82)"/><rect id="Rectangle_259" data-name="Rectangle 259" class="cls-16" x="310.74" y="221.66" width="3.61" height="7.94" transform="translate(21.58 478.5) rotate(-76.82)"/><rect id="Rectangle_260" data-name="Rectangle 260" class="cls-19" x="330.43" y="220.5" width="3.61" height="19.5" transform="translate(32.29 501.23) rotate(-76.82)"/><rect id="Rectangle_261" data-name="Rectangle 261" class="cls-16" x="308.27" y="246.2" width="3.61" height="27.45" transform="translate(-13.7 502.56) rotate(-76.82)"/><rect id="Rectangle_262" data-name="Rectangle 262" class="cls-16" x="312.96" y="252.55" width="3.61" height="31.78" transform="translate(-18.38 513.69) rotate(-76.82)"/><rect id="Rectangle_263" data-name="Rectangle 263" class="cls-16" x="304.98" y="260.26" width="3.61" height="27.45" transform="translate(-29.94 510.21) rotate(-76.82)"/><rect id="Rectangle_264" data-name="Rectangle 264" class="cls-16" x="304.74" y="266.18" width="3.61" height="30.33" transform="translate(-37.29 515.66) rotate(-76.82)"/><rect id="Rectangle_265" data-name="Rectangle 265" class="cls-19" x="310.83" y="271.41" width="3.61" height="37.56" transform="translate(-41.2 528.42) rotate(-76.82)"/><rect id="Rectangle_266" data-name="Rectangle 266" class="cls-16" x="301.44" y="280.25" width="3.61" height="30.33" transform="translate(-53.53 523.31) rotate(-76.82)"/><rect id="Rectangle_267" data-name="Rectangle 267" class="cls-19" x="327.82" y="292.56" width="3.61" height="18.06" transform="translate(-39.19 553.76) rotate(-76.82)"/><rect id="Rectangle_268" data-name="Rectangle 268" class="cls-16" x="309.92" y="243.5" width="3.61" height="18.78" transform="translate(-5.59 498.74) rotate(-76.82)"/></g></g><g id="Group_159" data-name="Group 159"><rect id="Rectangle_269" data-name="Rectangle 269" class="cls-18" x="66.81" y="159.63" width="75.36" height="56.41" rx="2.42" transform="translate(-78.37 74.86) rotate(-29.2)"/><rect id="Rectangle_270" data-name="Rectangle 270" class="cls-6" x="68.01" y="159.97" width="75.36" height="56.41" rx="2.42" transform="translate(-78.38 75.49) rotate(-29.2)"/><path id="Path_66" data-name="Path 66" class="cls-16" d="M88.36,223.26s-3.2-18,2.51-22.68,28.75,5.2,28.75,5.2"/><path id="Path_67" data-name="Path 67" class="cls-16" d="M106.64,201.2s-1.13-17.92,5.82-21.81c5.81-3.25,30.75,10.16,30.75,10.16"/><circle id="Ellipse_27" data-name="Ellipse 27" class="cls-19" cx="85.74" cy="187.08" r="5.73"/><path id="Path_68" data-name="Path 68" class="cls-16" d="M146.24,190.89,88.36,223.26l18-22.21,28.36-15.86Z"/></g><g id="Group_162" data-name="Group 162"><ellipse id="Ellipse_28" data-name="Ellipse 28" class="cls-20" cx="258.55" cy="390.48" rx="56.39" ry="2.97"/><ellipse id="Ellipse_29" data-name="Ellipse 29" class="cls-21" cx="258.55" cy="382.1" rx="96.06" ry="15.42"/><g id="Group_161" data-name="Group 161"><g id="Group_160" data-name="Group 160"><path id="Path_69" data-name="Path 69" class="cls-15" d="M323.38,379.28V298.87a6.93,6.93,0,0,0-6.93-6.94H200.66a6.94,6.94,0,0,0-6.94,6.94v80.41Z"/><path id="Path_70" data-name="Path 70" class="cls-22" d="M333.73,384H183.38c-3.12,0-3.6-4.13-3.6-4.13H337.32S336.85,384,333.73,384Z"/><rect id="Rectangle_271" data-name="Rectangle 271" class="cls-23" x="179.78" y="378.27" width="157.54" height="2.32"/><rect id="Rectangle_272" data-name="Rectangle 272" class="cls-24" x="243.35" y="378.27" width="30.4" height="1.31"/><rect id="Rectangle_273" data-name="Rectangle 273" class="cls-7" x="198.79" y="298.48" width="119.52" height="75.53"/></g><path id="Path_71" data-name="Path 71" class="cls-9" d="M323.43,378V298.87a6.94,6.94,0,0,0-6.94-6.94H236.76L288.71,378Z"/></g></g><g id="Group_165" data-name="Group 165"><ellipse id="Ellipse_30" data-name="Ellipse 30" class="cls-25" cx="88.7" cy="343.21" rx="18.78" ry="1.44"/><ellipse id="Ellipse_31" data-name="Ellipse 31" class="cls-26" cx="89.42" cy="342.49" rx="29.61" ry="5.78"/><g id="Group_164" data-name="Group 164"><g id="Group_163" data-name="Group 163"><path id="Rectangle_274" data-name="Rectangle 274" class="cls-15" d="M76.75,285H101a4,4,0,0,1,4,4v47.95a4,4,0,0,1-4,4H76.76a4,4,0,0,1-4-4h0V289a4,4,0,0,1,4-4Z"/><rect id="Rectangle_275" data-name="Rectangle 275" class="cls-7" x="74.73" y="292.01" width="28.32" height="41.08"/><path id="Path_72" data-name="Path 72" class="cls-16" d="M90.09,288.86a1.21,1.21,0,0,1-1.19,1.2h0a1.19,1.19,0,0,1-1.19-1.2h0a1.19,1.19,0,1,1,2.38,0Z"/><path id="Path_73" data-name="Path 73" class="cls-16" d="M92.26,337.05a1.31,1.31,0,0,1-1.3,1.31H86.84a1.31,1.31,0,0,1-1.31-1.31h0a1.31,1.31,0,0,1,1.31-1.31H91a1.31,1.31,0,0,1,1.3,1.31Z"/></g><path id="Path_74" data-name="Path 74" class="cls-9" d="M104.58,339.21a3.21,3.21,0,0,0,.36-1.45v-49.6a3.19,3.19,0,0,0-3.19-3.19H75.82a3.19,3.19,0,0,0-2.88,1.83Z"/></g></g></g><rect class="cls-1" width="520" height="440"/></svg>