<svg id="圖層_1" data-name="圖層 1" xmlns="http://www.w3.org/2000/svg" viewBox="0 0 520 80"><defs><style>.cls-1{fill:none;}.cls-2{fill:#244c67;}</style></defs><title>97 login design</title><rect class="cls-1" x="-1" width="520" height="520"/><path class="cls-2" d="M61.29,32.92l-6.64,2.22A5.45,5.45,0,0,0,49,31.19q-4.62,0-4.62,3a2.72,2.72,0,0,0,.86,2,8.77,8.77,0,0,0,3.92,1.44,39.28,39.28,0,0,1,7.46,2.08,9.52,9.52,0,0,1,4,3.38,8.91,8.91,0,0,1,1.62,5.21,10.4,10.4,0,0,1-3.47,7.81q-3.48,3.3-10.31,3.3a15.74,15.74,0,0,1-8.72-2.33A11.08,11.08,0,0,1,35,50.18l7.22-1.63c.82,3.11,3.07,4.66,6.78,4.66a6.32,6.32,0,0,0,4-1,3.06,3.06,0,0,0,1.32-2.47,2.6,2.6,0,0,0-1.2-2.28,14.48,14.48,0,0,0-4.6-1.51q-6.37-1.32-9.07-3.6t-2.71-6.68a9.91,9.91,0,0,1,3.23-7.49c2.16-2,5.08-3.05,8.77-3.05Q58.49,25.09,61.29,32.92Z"/><path class="cls-2" d="M74.23,24.92v7.27H67V24.92Zm0,9.35V58.92H67V34.27Z"/><path class="cls-2" d="M104.84,34.83a9,9,0,0,0-1.92-.25,2.53,2.53,0,0,0-2.84,2.15,6.64,6.64,0,0,1,2,4.69A6.5,6.5,0,0,1,99.14,47q-2.91,2.07-8.41,2.07a19.23,19.23,0,0,1-3.81-.37,2.16,2.16,0,0,0-1.24,1.88,1.64,1.64,0,0,0,1,1.69,20.65,20.65,0,0,0,5,.61,64.73,64.73,0,0,1,7.84.71,6.38,6.38,0,0,1,3.61,2,5.6,5.6,0,0,1,1.47,4,7,7,0,0,1-3.14,5.74q-3.14,2.34-11.12,2.35c-5,0-8.37-.55-10.11-1.63a4.77,4.77,0,0,1-2.61-4.12q0-3.3,4.22-4.45Q78.82,55.86,78.82,53q0-3.54,4.93-5.52-4.36-1.8-4.37-6a6.57,6.57,0,0,1,3-5.59q3-2.15,8.33-2.15a20,20,0,0,1,6.52,1.08,6.88,6.88,0,0,1,1.24-3.46c.67-.9,2.11-1.35,4.3-1.35a10.42,10.42,0,0,1,2,.19Zm-19,23.92a1.88,1.88,0,0,0-1.11.59A1.81,1.81,0,0,0,84,60.75c0,1.11.71,1.8,2.13,2.08a25.86,25.86,0,0,0,5,.42,16.62,16.62,0,0,0,5.24-.57,1.91,1.91,0,0,0,1.5-1.8q0-1-1.26-1.47t-6.7-.51l-1.47,0a14.07,14.07,0,0,1-1.8-.07A5.36,5.36,0,0,0,85.83,58.75Zm4.84-21.07a4.05,4.05,0,0,0-2.93,1,3.5,3.5,0,0,0-1.06,2.67q0,3.77,4,3.76a4.15,4.15,0,0,0,3-1.1,3.6,3.6,0,0,0,1.11-2.66,3.66,3.66,0,0,0-1-2.58A4.1,4.1,0,0,0,90.67,37.68Z"/><path class="cls-2" d="M129.31,58.92H122V45.08a20,20,0,0,0-.19-3.44A2.81,2.81,0,0,0,119,39.42c-2.56,0-3.83,1.88-3.83,5.66V58.92h-7.28V34.27h6.76v4.17A9.45,9.45,0,0,1,118,34.61a7.53,7.53,0,0,1,3.54-.86,8.25,8.25,0,0,1,5.66,1.89c1.43,1.27,2.15,3.74,2.15,7.44Z"/><path class="cls-2" d="M156.82,58.92h-7a17.29,17.29,0,0,1-.35-3.85,10.18,10.18,0,0,1-3.69,3.5,9.68,9.68,0,0,1-4.18.87A8.15,8.15,0,0,1,136,57.56a6.43,6.43,0,0,1-2.14-5.06,7.8,7.8,0,0,1,1.25-4.27,8.15,8.15,0,0,1,4-3.06q2.75-1.11,10-1.65V42.1q0-3.59-3.58-3.59-3.83,0-4.26,3.59l-6.71-.63a7.61,7.61,0,0,1,4-6,15.84,15.84,0,0,1,7.52-1.76,18.52,18.52,0,0,1,4.73.59,7.94,7.94,0,0,1,3.47,1.76,6.06,6.06,0,0,1,1.68,2.47,15.94,15.94,0,0,1,.44,4.56V54.31A17,17,0,0,0,156.82,58.92Zm-7.71-11.81q-7.62.75-7.62,4.61a3.38,3.38,0,0,0,.8,2.24,2.88,2.88,0,0,0,2.29.94,4,4,0,0,0,3.23-1.6,6.1,6.1,0,0,0,1.3-3.95Z"/><path class="cls-2" d="M187,34.83a9.1,9.1,0,0,0-1.93-.25,2.53,2.53,0,0,0-2.83,2.15,6.64,6.64,0,0,1,2,4.69A6.5,6.5,0,0,1,181.32,47c-1.94,1.38-4.75,2.07-8.41,2.07a19.23,19.23,0,0,1-3.81-.37,2.16,2.16,0,0,0-1.24,1.88,1.64,1.64,0,0,0,1,1.69,20.65,20.65,0,0,0,5.05.61,65,65,0,0,1,7.84.71,6.42,6.42,0,0,1,3.61,2,5.6,5.6,0,0,1,1.47,4,7,7,0,0,1-3.14,5.74q-3.13,2.34-11.12,2.35c-5,0-8.37-.55-10.11-1.63a4.77,4.77,0,0,1-2.61-4.12q0-3.3,4.22-4.45Q161,55.86,161,53q0-3.54,4.93-5.52-4.37-1.8-4.37-6a6.56,6.56,0,0,1,3-5.59q3-2.15,8.34-2.15a20,20,0,0,1,6.52,1.08,7,7,0,0,1,1.23-3.46c.68-.9,2.11-1.35,4.31-1.35a10.42,10.42,0,0,1,2.05.19ZM168,58.75a1.94,1.94,0,0,0-1.11.59,1.83,1.83,0,0,0-.67,1.41c0,1.11.71,1.8,2.13,2.08a25.86,25.86,0,0,0,5,.42,16.5,16.5,0,0,0,5.23-.57,1.91,1.91,0,0,0,1.5-1.8c0-.64-.41-1.13-1.25-1.47s-3.07-.51-6.7-.51l-1.47,0a14.26,14.26,0,0,1-1.81-.07A5.09,5.09,0,0,0,168,58.75Zm4.85-21.07a4,4,0,0,0-2.93,1,3.5,3.5,0,0,0-1.06,2.67q0,3.77,4,3.76a4.16,4.16,0,0,0,3.05-1.1A3.6,3.6,0,0,0,177,41.37a3.66,3.66,0,0,0-1-2.58A4.11,4.11,0,0,0,172.85,37.68Z"/><path class="cls-2" d="M212.19,47.82H196.32c0,.43,0,.82,0,1.14a5.27,5.27,0,0,0,1.4,4,4.69,4.69,0,0,0,3.36,1.35c2.43,0,3.88-1.3,4.37-3.89l6.59.49q-2.76,8.55-11.2,8.55A12.48,12.48,0,0,1,194.55,58a11.7,11.7,0,0,1-4.24-4.31,13.08,13.08,0,0,1-1.68-6.79A13.38,13.38,0,0,1,192,37.37a11.86,11.86,0,0,1,16.8-.26Q212.2,40.47,212.19,47.82ZM196.3,43.59h8.76c-.22-3.38-1.61-5.08-4.17-5.08C198.16,38.51,196.63,40.21,196.3,43.59Z"/><path class="cls-2" d="M244.39,58.92l-8.22-27.17V58.92h-6.54V25.6h12.15l5.85,19.94,6.15-19.94H266V58.92h-7.86V31.75l-8.39,27.17Z"/><path class="cls-2" d="M293.79,58.92h-7.06a17.37,17.37,0,0,1-.34-3.85,10.33,10.33,0,0,1-3.69,3.5,9.72,9.72,0,0,1-4.19.87,8.16,8.16,0,0,1-5.59-1.88,6.42,6.42,0,0,1-2.13-5.06A7.79,7.79,0,0,1,272,48.23a8.15,8.15,0,0,1,4-3.06q2.75-1.11,10-1.65V42.1q0-3.59-3.58-3.59-3.81,0-4.26,3.59l-6.71-.63a7.64,7.64,0,0,1,4-6A15.84,15.84,0,0,1,283,33.75a18.46,18.46,0,0,1,4.73.59,7.88,7.88,0,0,1,3.47,1.76,6.19,6.19,0,0,1,1.69,2.47,16.32,16.32,0,0,1,.44,4.56V54.31A16.64,16.64,0,0,0,293.79,58.92Zm-7.72-11.81q-7.62.75-7.62,4.61a3.34,3.34,0,0,0,.81,2.24,2.84,2.84,0,0,0,2.28.94,4,4,0,0,0,3.23-1.6,6,6,0,0,0,1.3-3.95Z"/><path class="cls-2" d="M320.79,58.92h-7.28V45.08a20,20,0,0,0-.19-3.44,2.81,2.81,0,0,0-2.86-2.22c-2.56,0-3.83,1.88-3.83,5.66V58.92h-7.28V34.27h6.76v4.17a9.51,9.51,0,0,1,3.32-3.83,7.59,7.59,0,0,1,3.54-.86,8.26,8.26,0,0,1,5.67,1.89c1.43,1.27,2.15,3.74,2.15,7.44Z"/><path class="cls-2" d="M348.3,58.92h-7.05a17.29,17.29,0,0,1-.35-3.85,10.18,10.18,0,0,1-3.69,3.5,9.68,9.68,0,0,1-4.18.87,8.15,8.15,0,0,1-5.59-1.88,6.39,6.39,0,0,1-2.14-5.06,7.8,7.8,0,0,1,1.25-4.27,8.17,8.17,0,0,1,4-3.06q2.76-1.11,10-1.65V42.1c0-2.39-1.2-3.59-3.58-3.59q-3.83,0-4.26,3.59L326,41.47a7.61,7.61,0,0,1,4-6,15.84,15.84,0,0,1,7.52-1.76,18.52,18.52,0,0,1,4.73.59,7.94,7.94,0,0,1,3.47,1.76,6.06,6.06,0,0,1,1.68,2.47,15.94,15.94,0,0,1,.44,4.56V54.31A17,17,0,0,0,348.3,58.92Zm-7.71-11.81q-7.62.75-7.62,4.61a3.38,3.38,0,0,0,.8,2.24,2.88,2.88,0,0,0,2.29.94,4,4,0,0,0,3.23-1.6,6.1,6.1,0,0,0,1.3-3.95Z"/><path class="cls-2" d="M378.5,34.83a9.1,9.1,0,0,0-1.93-.25,2.53,2.53,0,0,0-2.83,2.15,6.64,6.64,0,0,1,2,4.69A6.5,6.5,0,0,1,372.8,47c-1.94,1.38-4.75,2.07-8.41,2.07a19.23,19.23,0,0,1-3.81-.37,2.16,2.16,0,0,0-1.24,1.88,1.64,1.64,0,0,0,1.05,1.69,20.65,20.65,0,0,0,5.05.61,65.17,65.17,0,0,1,7.84.71,6.42,6.42,0,0,1,3.61,2,5.6,5.6,0,0,1,1.47,4,7,7,0,0,1-3.14,5.74q-3.14,2.34-11.12,2.35c-5,0-8.37-.55-10.11-1.63a4.77,4.77,0,0,1-2.61-4.12q0-3.3,4.22-4.45-3.12-1.56-3.12-4.39,0-3.54,4.93-5.52-4.37-1.8-4.37-6a6.56,6.56,0,0,1,3-5.59q3-2.15,8.34-2.15a20,20,0,0,1,6.52,1.08,7,7,0,0,1,1.23-3.46c.68-.9,2.11-1.35,4.31-1.35a10.42,10.42,0,0,1,2.05.19Zm-19,23.92a1.94,1.94,0,0,0-1.11.59,1.8,1.8,0,0,0-.67,1.41c0,1.11.71,1.8,2.13,2.08a25.86,25.86,0,0,0,5,.42,16.5,16.5,0,0,0,5.23-.57,1.91,1.91,0,0,0,1.5-1.8c0-.64-.41-1.13-1.25-1.47s-3.08-.51-6.71-.51l-1.46,0a14.16,14.16,0,0,1-1.81-.07A5.09,5.09,0,0,0,359.48,58.75Zm4.85-21.07a4,4,0,0,0-2.93,1,3.5,3.5,0,0,0-1.06,2.67q0,3.77,4,3.76a4.17,4.17,0,0,0,3.06-1.1,3.6,3.6,0,0,0,1.11-2.66,3.66,3.66,0,0,0-1-2.58A4.11,4.11,0,0,0,364.33,37.68Z"/><path class="cls-2" d="M403.67,47.82H387.8c0,.43,0,.82,0,1.14a5.27,5.27,0,0,0,1.4,4,4.69,4.69,0,0,0,3.36,1.35q3.63,0,4.37-3.89l6.59.49q-2.76,8.55-11.2,8.55A12.48,12.48,0,0,1,386,58a11.7,11.7,0,0,1-4.24-4.31,13.08,13.08,0,0,1-1.68-6.79,13.38,13.38,0,0,1,3.36-9.49,11.86,11.86,0,0,1,16.8-.26Q403.68,40.47,403.67,47.82Zm-15.89-4.23h8.76c-.22-3.38-1.62-5.08-4.17-5.08C389.63,38.51,388.1,40.21,387.78,43.59Z"/><path class="cls-2" d="M415.32,58.92h-7.06V34.27h6.67v4.59c1-3.42,2.8-5.13,5.32-5.13.36,0,.8,0,1.32.07V41a7.32,7.32,0,0,0-3.46.68,5,5,0,0,0-2,2.46,12,12,0,0,0-.78,4.77Z"/><rect class="cls-1" width="520" height="80"/></svg>