<svg id="圖層_1" data-name="圖層 1" xmlns="http://www.w3.org/2000/svg" xmlns:xlink="http://www.w3.org/1999/xlink" viewBox="0 0 520 520"><defs><style>.cls-1,.cls-11,.cls-13,.cls-20,.cls-25{fill:none;}.cls-2{fill:url(#未命名漸層_21);}.cls-3{fill:#97b1c9;}.cls-4{opacity:0.9;}.cls-5{fill:url(#未命名漸層_2);}.cls-6,.cls-9{fill:#fff;}.cls-7{fill:#b0d4e1;}.cls-8{fill:#cfd7e2;}.cls-9{opacity:0.1;}.cls-12,.cls-19,.cls-24,.cls-9{isolation:isolate;}.cls-10{clip-path:url(#clip-path);}.cls-11{stroke:#afd0d8;stroke-width:3px;}.cls-11,.cls-13,.cls-20,.cls-25{stroke-miterlimit:10;}.cls-12{opacity:0.8;fill:url(#未命名漸層_28);}.cls-13,.cls-20,.cls-25{stroke:#b0d4e9;}.cls-13{stroke-width:2px;}.cls-14{fill:#244c67;}.cls-15{fill:#c0ccdd;}.cls-16{fill:#537895;}.cls-17{fill:#eef3f9;}.cls-18{fill:#82a7c6;}.cls-19{opacity:0.7;fill:url(#未命名漸層_29);}.cls-20{stroke-width:2.5px;}.cls-21{fill:#bfcddd;}.cls-22{fill:#e1e9f4;}.cls-23{fill:#bbbdbf;}.cls-24{fill:url(#未命名漸層_31);}.cls-25{stroke-width:1.3px;}</style><linearGradient id="未命名漸層_21" x1="909.68" y1="-120.65" x2="910.57" y2="-120.86" gradientTransform="matrix(486.74, 0, 0, -389.98, -442725.01, -46787.4)" gradientUnits="userSpaceOnUse"><stop offset="0" stop-color="#537895"/><stop offset="1" stop-color="#82a7c6"/></linearGradient><linearGradient id="未命名漸層_2" x1="906.8" y1="-127.32" x2="907.13" y2="-126.23" gradientTransform="matrix(211.23, 0, 0, -109.6, -191190.44, -13610.49)" gradientUnits="userSpaceOnUse"><stop offset="0" stop-color="#dde4ec"/><stop offset="1" stop-color="#fff"/></linearGradient><clipPath id="clip-path"><rect class="cls-1" x="125.31" y="184.65" width="189.95" height="13"/></clipPath><radialGradient id="未命名漸層_28" cx="-14423.88" cy="-87519.9" r="397.06" gradientTransform="matrix(0.07, 0, 0, -0.01, 1439.99, -496.08)" gradientUnits="userSpaceOnUse"><stop offset="0" stop-color="#244c67"/><stop offset="1" stop-color="#537895" stop-opacity="0.4"/></radialGradient><radialGradient id="未命名漸層_29" cx="-29951.16" cy="-209425.72" r="1579.94" gradientTransform="matrix(0.04, 0, 0, 0, 1386.88, -389.73)" xlink:href="#未命名漸層_28"/><radialGradient id="未命名漸層_31" cx="-10281.83" cy="-70683.27" r="259.18" gradientTransform="matrix(0.08, 0, 0, -0.01, 881.74, -424.37)" gradientUnits="userSpaceOnUse"><stop offset="0" stop-color="#244c67" stop-opacity="0.8"/><stop offset="1" stop-color="#537895" stop-opacity="0.4"/></radialGradient></defs><title>login-image</title><g id="Group_166" data-name="Group 166"><path id="Path_59" data-name="Path 59" class="cls-2" d="M62.66,206.35c42-55.57,98.66,13.61,154.23,0s76-97,140-66.34-9.64,112.27,10.21,150.26,105.46,13.6,116.8,57.26S351.26,414.44,332,450.16s-84.54,74.28-137.34-27.9C161.42,358,116,432.58,72.87,378.15S36.75,240.67,62.66,206.35Z"/><g id="Group_149" data-name="Group 149"><path id="Path_60" data-name="Path 60" class="cls-3" d="M147.72,454.69a1.81,1.81,0,0,1-.12-3.61h0a41.9,41.9,0,0,0,7.87-1.25l8.71-2.3a1.8,1.8,0,0,1,2.21,1.28h0a1.81,1.81,0,0,1-1.28,2.21l-8.72,2.3a45.76,45.76,0,0,1-8.55,1.37Zm-11.54-.36-.22,0a96,96,0,0,1-17.24-3.82,1.82,1.82,0,0,1-1.19-2.26h0a1.79,1.79,0,0,1,2.25-1.18h0a93.31,93.31,0,0,0,16.59,3.68,1.79,1.79,0,0,1,1.58,2h0a1.8,1.8,0,0,1-1.79,1.59Zm250.88-5a129.72,129.72,0,0,1-13.36-.75,1.81,1.81,0,0,1-1.6-2h0a1.79,1.79,0,0,1,2-1.6,115.6,115.6,0,0,0,17.05.64,1.83,1.83,0,0,1,1.88,1.73,1.8,1.8,0,0,1-1.72,1.88h0c-1.36.06-2.78.09-4.22.09Zm-211.24-1.2a1.81,1.81,0,0,1-.46-3.55c6.33-1.68,11.6-3.08,16.78-4.42a1.81,1.81,0,0,1,.91,3.5c-5.17,1.34-10.44,2.73-16.77,4.41a1.76,1.76,0,0,1-.46.06Zm226.85-.27a1.8,1.8,0,0,1-.38-3.57,36.84,36.84,0,0,0,15-6.51,1.8,1.8,0,1,1,2.21,2.85h0a40.35,40.35,0,0,1-16.48,7.19,1.67,1.67,0,0,1-.38,0ZM362.45,447a1.55,1.55,0,0,1-.31,0c-5.36-.91-11.11-2.12-17.1-3.57a1.81,1.81,0,0,1-1.33-2.18h0a1.81,1.81,0,0,1,2.19-1.33c5.9,1.43,11.57,2.62,16.85,3.52a1.81,1.81,0,0,1,1.47,2.09h0a1.79,1.79,0,0,1-1.77,1.5Zm-254-.37a1.69,1.69,0,0,1-.7-.15,151.22,151.22,0,0,1-15.77-7.71,1.8,1.8,0,0,1,1.76-3.15,148.09,148.09,0,0,0,15.4,7.53,1.82,1.82,0,0,1,1,2.37h0a1.8,1.8,0,0,1-1.66,1.1Zm95.4-5.76a1.81,1.81,0,0,1-.44-3.56h0c6.2-1.55,11.73-2.86,16.92-4a1.8,1.8,0,0,1,.79,3.52c-5.15,1.15-10.66,2.46-16.83,4a1.61,1.61,0,0,1-.44.06Zm130.49-.35a2,2,0,0,1-.49-.06c-5.33-1.49-10.93-3.19-16.67-5a1.8,1.8,0,0,1-1.16-2.27h0a1.81,1.81,0,0,1,2.27-1.17c5.69,1.84,11.25,3.52,16.53,5a1.81,1.81,0,0,1,1.26,2.22h0a1.81,1.81,0,0,1-1.74,1.32ZM232,434.43a1.8,1.8,0,0,1-.35-3.57c6.15-1.22,11.77-2.19,17.19-3a1.8,1.8,0,0,1,.51,3.57h0c-5.35.77-10.91,1.72-17,2.93a2,2,0,0,1-.35,0Zm74.57-2a1.83,1.83,0,0,1-.4-.05,123.27,123.27,0,0,0-16.88-2.56,1.79,1.79,0,0,1-1.65-1.95h0a1.81,1.81,0,0,1,1.95-1.65A127.73,127.73,0,0,1,307,428.82a1.8,1.8,0,0,1-.4,3.56Zm119.31-.13A1.72,1.72,0,0,1,425,432a1.81,1.81,0,0,1-.73-2.45h0a36.1,36.1,0,0,0,4-15.88,1.8,1.8,0,1,1,3.6.15,39.58,39.58,0,0,1-4.38,17.46,1.8,1.8,0,0,1-1.58.94Zm-165.31-2.14a1.8,1.8,0,0,1-.17-3.6h0c5.91-.55,11.63-.83,17-.83h.49a1.81,1.81,0,1,1,0,3.61h-.48c-5.27,0-10.88.28-16.67.82ZM60.37,414.89a1.76,1.76,0,0,1-1.26-.51,111.67,111.67,0,0,1-11.63-13.24,1.81,1.81,0,1,1,2.9-2.15h0A108.78,108.78,0,0,0,61.64,411.8a1.8,1.8,0,0,1,0,2.55,1.77,1.77,0,0,1-1.3.54Zm369.06-10.83a1.81,1.81,0,0,1-1.79-1.57A113,113,0,0,0,424,385.82a1.82,1.82,0,0,1,1.23-2.24h0a1.81,1.81,0,0,1,2.23,1.23h0A116.49,116.49,0,0,1,431.22,402a1.8,1.8,0,0,1-1.56,2l-.23,0ZM42.72,392.12a1.8,1.8,0,0,1-1.59-1,49.46,49.46,0,0,1-5.69-17,1.8,1.8,0,0,1,3.58-.46h0a46.13,46.13,0,0,0,5.3,15.72,1.8,1.8,0,0,1-.75,2.44A1.78,1.78,0,0,1,42.72,392.12Zm379.45-16a1.82,1.82,0,0,1-1.7-1.19c-1.82-5-4-10.41-6.47-16a1.81,1.81,0,0,1,3.3-1.47h0c2.51,5.62,4.71,11.07,6.57,16.18a1.82,1.82,0,0,1-1.08,2.32,1.87,1.87,0,0,1-.62.1ZM37.86,364.31a2.12,2.12,0,0,1-.44-.05,1.82,1.82,0,0,1-1.31-2.2h0l.15-.54a156.19,156.19,0,0,1,5.53-16.61,1.82,1.82,0,0,1,2.35-1,1.79,1.79,0,0,1,1,2.35h0a151.13,151.13,0,0,0-5.4,16.22c-.05.16-.09.32-.13.47a1.81,1.81,0,0,1-1.75,1.36Zm372.91-14.73a1.8,1.8,0,0,1-1.62-1c-2.4-4.92-5.06-10.09-7.9-15.36a1.81,1.81,0,0,1,.72-2.45h0a1.82,1.82,0,0,1,2.45.73c2.87,5.32,5.55,10.53,8,15.49a1.8,1.8,0,0,1-1.62,2.6ZM48.26,336.9a1.71,1.71,0,0,1-.83-.21,1.8,1.8,0,0,1-.77-2.43,94.78,94.78,0,0,1,9.48-14.84,1.79,1.79,0,0,1,2.53-.31h0a1.8,1.8,0,0,1,.31,2.54h0a91.38,91.38,0,0,0-9.12,14.27A1.81,1.81,0,0,1,48.26,336.9ZM397.37,324a1.85,1.85,0,0,1-1.64-1.05,48.46,48.46,0,0,1-4.38-17.37,1.8,1.8,0,1,1,3.6-.21A44.81,44.81,0,0,0,399,321.41a1.8,1.8,0,0,1-.88,2.39h0a1.83,1.83,0,0,1-.76.17ZM65.3,313.79a1.81,1.81,0,0,1-1.25-3.11A88.4,88.4,0,0,1,78,299.86a1.81,1.81,0,0,1,2.49.55h0a1.8,1.8,0,0,1-.55,2.49,84.1,84.1,0,0,0-13.37,10.38,1.79,1.79,0,0,1-1.25.5ZM89,297.48a1.8,1.8,0,0,1-.83-3.41c4-2.09,8.15-4,12.12-5.86,1.2-.55,2.39-1.11,3.57-1.67a1.81,1.81,0,1,1,1.54,3.27h0l-3.58,1.68c-3.94,1.84-8,3.74-12,5.79a1.88,1.88,0,0,1-.83.2Zm304.75-1.75a1.27,1.27,0,0,1-.28,0,1.81,1.81,0,0,1-1.51-2.06h0a78.67,78.67,0,0,1,4.84-17,1.8,1.8,0,0,1,2.34-1h0a1.8,1.8,0,0,1,1,2.34,75.28,75.28,0,0,0-4.62,16.26,1.81,1.81,0,0,1-1.78,1.52ZM115,284.84a1.83,1.83,0,0,1-1.6-.95,1.81,1.81,0,0,1,.74-2.45h0a86.28,86.28,0,0,0,14.18-9.28,1.8,1.8,0,0,1,2.54.24h0a1.81,1.81,0,0,1-.25,2.54h0a89.53,89.53,0,0,1-14.76,9.67A1.79,1.79,0,0,1,115,284.84Zm288.29-16.27a1.81,1.81,0,0,1-1.61-2.62c2.34-4.61,5.07-9.45,8.59-15.24a1.8,1.8,0,0,1,2.48-.6h0a1.8,1.8,0,0,1,.6,2.48h0c-3.47,5.71-6.16,10.47-8.45,15a1.8,1.8,0,0,1-1.61,1Zm-265.6-1.27a1.85,1.85,0,0,1-1.17-.43,1.81,1.81,0,0,1-.2-2.55h0a66.4,66.4,0,0,0,8.4-12.59c.25-.5.51-1,.75-1.5a1.8,1.8,0,0,1,2.41-.84h0a1.81,1.81,0,0,1,.84,2.41c-.26.53-.52,1.06-.8,1.58A68.76,68.76,0,0,1,139,266.66a1.77,1.77,0,0,1-1.37.64Zm280.25-23.67a1.81,1.81,0,0,1-1.52-2.77l2.11-3.32c2.38-3.74,4.85-7.6,7.14-11.34a1.79,1.79,0,0,1,2.48-.59h0a1.8,1.8,0,0,1,.59,2.48h0c-2.31,3.76-4.78,7.64-7.17,11.4l-2.11,3.31a1.8,1.8,0,0,1-1.52.84ZM151.15,242a1.61,1.61,0,0,1-.49-.07,1.8,1.8,0,0,1-1.25-2.22h0a76.21,76.21,0,0,0,2.65-16.7,1.81,1.81,0,0,1,1.89-1.71h0a1.8,1.8,0,0,1,1.71,1.9h0a79.73,79.73,0,0,1-2.78,17.49,1.83,1.83,0,0,1-1.74,1.32ZM433,219a1.87,1.87,0,0,1-.87-.22,1.82,1.82,0,0,1-.71-2.46h0a105,105,0,0,0,7.16-15.45A1.81,1.81,0,1,1,442,202a108.3,108.3,0,0,1-7.41,16A1.79,1.79,0,0,1,433,219Zm-279.15-5.6a1.8,1.8,0,0,1-1.8-1.72c-.27-6.05-.94-12.06-1.55-17.14a1.81,1.81,0,0,1,1.58-2h0a1.82,1.82,0,0,1,2,1.58c.62,5.15,1.29,11.24,1.57,17.41a1.79,1.79,0,0,1-1.72,1.88h-.09ZM443,192h-.21a1.81,1.81,0,0,1-1.59-2,34.6,34.6,0,0,0,.25-4.07,27.61,27.61,0,0,0-2.56-11.89,1.81,1.81,0,0,1,3.28-1.51A31.59,31.59,0,0,1,445.1,186a39.64,39.64,0,0,1-.27,4.49A1.81,1.81,0,0,1,443,192ZM150.9,184.62a1.8,1.8,0,0,1-1.79-1.59c-.62-5.26-1.28-11.45-1.43-17.45a1.8,1.8,0,0,1,1.76-1.85h.05a1.8,1.8,0,0,1,1.8,1.76c.14,5.85.79,11.93,1.41,17.11a1.81,1.81,0,0,1-1.58,2h-.22Zm176.5-10.05h-.09a50.37,50.37,0,0,1-9.07-1.33,49.06,49.06,0,0,1-8.33-2.86A1.81,1.81,0,0,1,309,168h0a1.79,1.79,0,0,1,2.38-.91,45.48,45.48,0,0,0,7.7,2.65A47,47,0,0,0,327.5,171a1.81,1.81,0,0,1,1.71,1.9h0A1.82,1.82,0,0,1,327.4,174.57Zm11.5-.78a1.81,1.81,0,0,1-.33-3.58h0a70,70,0,0,0,16-5.26,1.8,1.8,0,1,1,1.48,3.29h0a72.94,72.94,0,0,1-16.85,5.52A1.84,1.84,0,0,1,338.9,173.79Zm95.07-8.1a1.78,1.78,0,0,1-1.3-.55,55.45,55.45,0,0,0-10.75-8.43c-.89-.55-1.78-1.07-2.67-1.54a1.81,1.81,0,0,1-.74-2.45h0A1.82,1.82,0,0,1,421,152c1,.51,1.91,1.06,2.85,1.64a59.39,59.39,0,0,1,11.46,9,1.82,1.82,0,0,1-1.3,3.07Zm-133.4-.79a1.76,1.76,0,0,1-1-.3,141.52,141.52,0,0,1-13.9-10.75,1.8,1.8,0,0,1-.19-2.54h0a1.81,1.81,0,0,1,2.55-.2h0a139.88,139.88,0,0,0,13.53,10.47,1.8,1.8,0,0,1,.51,2.5,1.82,1.82,0,0,1-1.5.82Zm65.15-1.61a1.81,1.81,0,0,1-.84-3.41h0l2.46-1.29c4.31-2.26,8.76-4.59,13.17-6.52a1.81,1.81,0,1,1,1.45,3.31c-4.29,1.87-8.49,4.08-12.94,6.41l-2.47,1.29a1.82,1.82,0,0,1-.83.21ZM150,155.8l-.22,0a1.81,1.81,0,0,1-1.58-2h0a47.9,47.9,0,0,1,5.22-17.12,1.8,1.8,0,0,1,3.18,1.7,44.44,44.44,0,0,0-4.81,15.86A1.8,1.8,0,0,1,150,155.8Zm242.16-4.07a1.81,1.81,0,0,1-.43-3.56h0a42.65,42.65,0,0,1,10.06-1.26,37.82,37.82,0,0,1,7.93.85,1.81,1.81,0,0,1-.76,3.53,33.92,33.92,0,0,0-7.17-.77,39.12,39.12,0,0,0-9.21,1.16l-.42.06ZM278.2,146.61a1.79,1.79,0,0,1-1.21-.46l-1.89-1.71c-3.58-3.24-7.29-6.6-11-9.82a1.79,1.79,0,0,1-.19-2.54h0a1.8,1.8,0,0,1,2.54-.19h0c3.77,3.25,7.5,6.62,11.1,9.88l1.88,1.7a1.82,1.82,0,0,1-1.21,3.16ZM161.8,130a1.76,1.76,0,0,1-1.25-.51,1.8,1.8,0,0,1-.05-2.55h0a59.54,59.54,0,0,1,14.29-10.63,1.8,1.8,0,0,1,2.45.72h0a1.81,1.81,0,0,1-.71,2.45h0a55.77,55.77,0,0,0-13.42,10,1.82,1.82,0,0,1-1.3.55Zm94.48-2.27a1.79,1.79,0,0,1-1.09-.37A108.7,108.7,0,0,0,241,118a1.8,1.8,0,0,1-.72-2.44h0a1.8,1.8,0,0,1,2.44-.72h0a112.65,112.65,0,0,1,14.7,9.68,1.81,1.81,0,0,1,.34,2.53h0a1.8,1.8,0,0,1-1.44.71Zm-70.14-12.88a1.81,1.81,0,0,1-.66-3.49h0a75.63,75.63,0,0,1,17.14-4.53,1.8,1.8,0,0,1,2,1.54h0a1.8,1.8,0,0,1-1.55,2h0a71.46,71.46,0,0,0-16.32,4.32,1.82,1.82,0,0,1-.65.12Zm45.16-1.39a1.78,1.78,0,0,1-.61-.11,58.22,58.22,0,0,0-16.4-3.39,1.79,1.79,0,0,1-1.69-1.9h0a1.79,1.79,0,0,1,1.9-1.69h0a62.41,62.41,0,0,1,17.4,3.59,1.81,1.81,0,0,1-.61,3.51Z"/></g><g id="Group_150" data-name="Group 150" class="cls-4"><path id="Path_61" data-name="Path 61" class="cls-5" d="M307.28,316.81h.21c16.21.88,32.72,0,49,0h93.17s10.94.71,17.31-5.2c5.81-5.4,8.83-13.5,9.33-22a35.71,35.71,0,0,0-40.37-37.46c-2.34-18.37-19.39-33.26-40.9-34.52-16.21-1-30.79,6.08-38.92,17.28a29.55,29.55,0,0,0-9.76-2.25c-14.8-.87-31.53,9.21-30.25,27.75C280.26,257.83,271,314.62,307.28,316.81Z"/></g><g id="Group_154" data-name="Group 154"><rect id="Rectangle_239" data-name="Rectangle 239" class="cls-6" x="108.56" y="179.22" width="223.45" height="166.7" rx="7.88"/><rect id="Rectangle_240" data-name="Rectangle 240" class="cls-7" x="125.41" y="195.18" width="189.75" height="117.63" rx="3.36"/><g id="Group_151" data-name="Group 151"><rect id="Rectangle_241" data-name="Rectangle 241" class="cls-8" x="125.41" y="320.21" width="26.6" height="15.07" rx="1.75"/><rect id="Rectangle_242" data-name="Rectangle 242" class="cls-8" x="166.2" y="320.21" width="26.6" height="15.07" rx="1.75"/><rect id="Rectangle_243" data-name="Rectangle 243" class="cls-8" x="206.98" y="320.21" width="26.6" height="15.07" rx="1.75"/><rect id="Rectangle_244" data-name="Rectangle 244" class="cls-8" x="247.77" y="320.21" width="26.6" height="15.07" rx="1.75"/></g><path id="Path_62" data-name="Path 62" class="cls-9" d="M324.33,345.92H263.21l-72.9-166.7h134A7.68,7.68,0,0,1,332,186.9h0V338.25A7.67,7.67,0,0,1,324.33,345.92Z"/><g id="Group_153" data-name="Group 153"><g class="cls-10"><g id="Group_152" data-name="Group 152"><g id="Rectangle_245" data-name="Rectangle 245"><rect class="cls-1" x="125.41" y="195.18" width="189.75" height="117.63" rx="3.36"/><rect class="cls-11" x="126.77" y="196.55" width="187.02" height="114.91" rx="1.99"/></g></g></g></g></g><ellipse id="Ellipse_25" data-name="Ellipse 25" class="cls-12" cx="417.1" cy="379.29" rx="25.28" ry="1.81"/><ellipse id="Ellipse_26" data-name="Ellipse 26" class="cls-13" cx="415.65" cy="373.87" rx="41.17" ry="9.39"/><g id="Group_156" data-name="Group 156"><g id="Group_155" data-name="Group 155"><path id="Rectangle_247" data-name="Rectangle 247" class="cls-14" d="M396.32,302.74h41.79a4.06,4.06,0,0,1,4.06,4.06v63.32a4.06,4.06,0,0,1-4.06,4.06H396.32a4.07,4.07,0,0,1-4.07-4.06h0V306.8A4.07,4.07,0,0,1,396.32,302.74Z"/><rect id="Rectangle_248" data-name="Rectangle 248" class="cls-7" x="395.66" y="309.69" width="43.12" height="57.54"/><path id="Path_63" data-name="Path 63" class="cls-15" d="M420.58,370.89a1.18,1.18,0,0,1-1.18,1.18h-3.72a1.18,1.18,0,0,1-1.18-1.18h0a1.18,1.18,0,0,1,1.18-1.18h3.72a1.18,1.18,0,0,1,1.18,1.18Z"/></g><path id="Path_64" data-name="Path 64" class="cls-9" d="M437.36,374.18H439a3.23,3.23,0,0,0,3.23-3.22h0V306a3.23,3.23,0,0,0-3.23-3.23H395.49a3.1,3.1,0,0,0-1.13.21Z"/></g><path id="Path_65" data-name="Path 65" class="cls-16" d="M395.58,270l-13.87-16-13.88,16h9.54v18.65H386V270Z"/><g id="Group_158" data-name="Group 158"><rect id="Rectangle_249" data-name="Rectangle 249" class="cls-17" x="274.12" y="302.07" width="96.06" height="74.71" rx="4.69" transform="translate(-81.79 575.68) rotate(-76.82)"/><rect id="Rectangle_250" data-name="Rectangle 250" class="cls-6" x="275.19" y="303.8" width="96.06" height="74.71" rx="4.69" transform="translate(-82.65 578.07) rotate(-76.82)"/><g id="Group_157" data-name="Group 157"><rect id="Rectangle_251" data-name="Rectangle 251" class="cls-15" x="329.6" y="278.12" width="3.61" height="51.28" transform="translate(-39.92 557.17) rotate(-76.82)"/><rect id="Rectangle_252" data-name="Rectangle 252" class="cls-15" x="323.63" y="292.58" width="3.61" height="44.78" transform="translate(-55.45 560.02) rotate(-76.82)"/><rect id="Rectangle_253" data-name="Rectangle 253" class="cls-18" x="307.38" y="310.62" width="3.61" height="14.45" transform="translate(-70.78 546.41) rotate(-76.82)"/><rect id="Rectangle_254" data-name="Rectangle 254" class="cls-15" x="325.67" y="315.63" width="3.61" height="13" transform="translate(-60.84 567.52) rotate(-76.82)"/><rect id="Rectangle_255" data-name="Rectangle 255" class="cls-15" x="328.7" y="331.17" width="3.61" height="13" transform="translate(-73.63 582.47) rotate(-76.82)"/><rect id="Rectangle_256" data-name="Rectangle 256" class="cls-7" x="340.88" y="348.86" width="3.61" height="13" transform="translate(-81.45 607.99) rotate(-76.82)"/><rect id="Rectangle_257" data-name="Rectangle 257" class="cls-18" x="342.19" y="317.69" width="3.61" height="16.61" transform="translate(-51.85 586.6) rotate(-76.82)"/><rect id="Rectangle_258" data-name="Rectangle 258" class="cls-7" x="319.45" y="306.78" width="3.61" height="42.61" transform="translate(-71.44 566.07) rotate(-76.82)"/><rect id="Rectangle_259" data-name="Rectangle 259" class="cls-15" x="311.24" y="302.16" width="3.61" height="7.94" transform="translate(-56.41 541.13) rotate(-76.82)"/><rect id="Rectangle_260" data-name="Rectangle 260" class="cls-18" x="330.93" y="301" width="3.61" height="19.5" transform="translate(-45.7 563.86) rotate(-76.82)"/><rect id="Rectangle_261" data-name="Rectangle 261" class="cls-15" x="308.77" y="326.7" width="3.61" height="27.45" transform="translate(-91.7 565.19) rotate(-76.82)"/><rect id="Rectangle_262" data-name="Rectangle 262" class="cls-15" x="313.46" y="333.05" width="3.61" height="31.78" transform="translate(-96.37 576.32) rotate(-76.82)"/><rect id="Rectangle_263" data-name="Rectangle 263" class="cls-15" x="305.48" y="340.76" width="3.61" height="27.45" transform="translate(-107.93 572.84) rotate(-76.82)"/><rect id="Rectangle_264" data-name="Rectangle 264" class="cls-15" x="305.24" y="346.68" width="3.61" height="30.33" transform="translate(-115.29 578.29) rotate(-76.82)"/><rect id="Rectangle_265" data-name="Rectangle 265" class="cls-18" x="311.33" y="351.91" width="3.61" height="37.56" transform="translate(-119.2 591.05) rotate(-76.82)"/><rect id="Rectangle_266" data-name="Rectangle 266" class="cls-15" x="301.94" y="360.75" width="3.61" height="30.33" transform="translate(-131.52 585.94) rotate(-76.82)"/><rect id="Rectangle_267" data-name="Rectangle 267" class="cls-18" x="328.32" y="373.06" width="3.61" height="18.06" transform="translate(-117.18 616.39) rotate(-76.82)"/><rect id="Rectangle_268" data-name="Rectangle 268" class="cls-15" x="310.42" y="324" width="3.61" height="18.78" transform="translate(-83.58 561.37) rotate(-76.82)"/></g></g><g id="Group_159" data-name="Group 159"><rect id="Rectangle_269" data-name="Rectangle 269" class="cls-17" x="67.31" y="240.13" width="75.36" height="56.41" rx="2.42" transform="translate(-117.58 85.34) rotate(-29.2)"/><rect id="Rectangle_270" data-name="Rectangle 270" class="cls-6" x="68.51" y="240.47" width="75.36" height="56.41" rx="2.42" transform="translate(-117.59 85.97) rotate(-29.2)"/><path id="Path_66" data-name="Path 66" class="cls-15" d="M88.86,303.76s-3.2-18,2.51-22.68,28.75,5.2,28.75,5.2"/><path id="Path_67" data-name="Path 67" class="cls-15" d="M107.14,281.7S106,263.78,113,259.89c5.81-3.25,30.75,10.16,30.75,10.16"/><circle id="Ellipse_27" data-name="Ellipse 27" class="cls-18" cx="86.24" cy="267.58" r="5.73"/><path id="Path_68" data-name="Path 68" class="cls-15" d="M146.74,271.39,88.86,303.76l18-22.21,28.36-15.86Z"/></g><g id="Group_162" data-name="Group 162"><ellipse id="Ellipse_28" data-name="Ellipse 28" class="cls-19" cx="259.05" cy="470.98" rx="56.39" ry="2.97"/><ellipse id="Ellipse_29" data-name="Ellipse 29" class="cls-20" cx="259.05" cy="462.6" rx="96.06" ry="15.42"/><g id="Group_161" data-name="Group 161"><g id="Group_160" data-name="Group 160"><path id="Path_69" data-name="Path 69" class="cls-14" d="M323.88,459.78V379.37a6.93,6.93,0,0,0-6.93-6.94H201.16a6.94,6.94,0,0,0-6.94,6.94v80.41Z"/><path id="Path_70" data-name="Path 70" class="cls-21" d="M334.23,464.51H183.88c-3.12,0-3.6-4.13-3.6-4.13H337.82S337.35,464.51,334.23,464.51Z"/><rect id="Rectangle_271" data-name="Rectangle 271" class="cls-22" x="180.28" y="458.77" width="157.54" height="2.32"/><rect id="Rectangle_272" data-name="Rectangle 272" class="cls-23" x="243.85" y="458.77" width="30.4" height="1.31"/><rect id="Rectangle_273" data-name="Rectangle 273" class="cls-7" x="199.29" y="378.98" width="119.52" height="75.53"/></g><path id="Path_71" data-name="Path 71" class="cls-9" d="M323.93,458.49V379.37a6.94,6.94,0,0,0-6.94-6.94H237.26l51.95,86.06Z"/></g></g><g id="Group_165" data-name="Group 165"><ellipse id="Ellipse_30" data-name="Ellipse 30" class="cls-24" cx="89.2" cy="423.71" rx="18.78" ry="1.44"/><ellipse id="Ellipse_31" data-name="Ellipse 31" class="cls-25" cx="89.92" cy="422.99" rx="29.61" ry="5.78"/><g id="Group_164" data-name="Group 164"><g id="Group_163" data-name="Group 163"><path id="Rectangle_274" data-name="Rectangle 274" class="cls-14" d="M77.25,365.47h24.29a4,4,0,0,1,4,4v47.95a4,4,0,0,1-4,4H77.26a4,4,0,0,1-4-4h0V369.48a4,4,0,0,1,4-4Z"/><rect id="Rectangle_275" data-name="Rectangle 275" class="cls-7" x="75.23" y="372.51" width="28.32" height="41.08"/><path id="Path_72" data-name="Path 72" class="cls-15" d="M90.59,369.36a1.21,1.21,0,0,1-1.19,1.2h0a1.19,1.19,0,0,1-1.19-1.2h0a1.19,1.19,0,1,1,2.38,0Z"/><path id="Path_73" data-name="Path 73" class="cls-15" d="M92.76,417.55a1.31,1.31,0,0,1-1.3,1.31H87.34A1.31,1.31,0,0,1,86,417.55h0a1.31,1.31,0,0,1,1.31-1.31h4.12a1.31,1.31,0,0,1,1.3,1.31Z"/></g><path id="Path_74" data-name="Path 74" class="cls-9" d="M105.08,419.71a3.21,3.21,0,0,0,.36-1.45v-49.6a3.19,3.19,0,0,0-3.19-3.19H76.32a3.19,3.19,0,0,0-2.88,1.83Z"/></g></g></g><path class="cls-14" d="M61.79,32.92l-6.64,2.22a5.45,5.45,0,0,0-5.68-3.95q-4.62,0-4.62,3a2.72,2.72,0,0,0,.86,2,8.77,8.77,0,0,0,3.92,1.44,39.28,39.28,0,0,1,7.46,2.08,9.52,9.52,0,0,1,4,3.38,8.91,8.91,0,0,1,1.62,5.21,10.4,10.4,0,0,1-3.47,7.81q-3.48,3.3-10.31,3.3a15.74,15.74,0,0,1-8.72-2.33,11.08,11.08,0,0,1-4.74-6.93l7.22-1.63c.82,3.11,3.07,4.66,6.78,4.66a6.32,6.32,0,0,0,4-1,3.06,3.06,0,0,0,1.32-2.47,2.6,2.6,0,0,0-1.2-2.28A14.48,14.48,0,0,0,49,45.91q-6.37-1.32-9.07-3.6t-2.71-6.68a9.91,9.91,0,0,1,3.23-7.49c2.16-2,5.08-3.05,8.77-3.05Q59,25.09,61.79,32.92Z"/><path class="cls-14" d="M74.73,24.92v7.27H67.45V24.92Zm0,9.35V58.92H67.45V34.27Z"/><path class="cls-14" d="M105.34,34.83a9,9,0,0,0-1.92-.25,2.53,2.53,0,0,0-2.84,2.15,6.64,6.64,0,0,1,2,4.69A6.5,6.5,0,0,1,99.64,47q-2.91,2.07-8.41,2.07a19.23,19.23,0,0,1-3.81-.37,2.16,2.16,0,0,0-1.24,1.88,1.64,1.64,0,0,0,1,1.69,20.65,20.65,0,0,0,5,.61,64.73,64.73,0,0,1,7.84.71,6.38,6.38,0,0,1,3.61,2,5.6,5.6,0,0,1,1.47,4,7,7,0,0,1-3.14,5.74q-3.14,2.34-11.12,2.35c-5,0-8.37-.55-10.11-1.63a4.77,4.77,0,0,1-2.61-4.12q0-3.3,4.22-4.45Q79.32,55.86,79.32,53q0-3.54,4.93-5.52-4.36-1.8-4.37-6a6.57,6.57,0,0,1,3-5.59q3-2.15,8.33-2.15a20,20,0,0,1,6.52,1.08A6.88,6.88,0,0,1,99,31.37c.67-.9,2.11-1.35,4.3-1.35a10.42,10.42,0,0,1,2,.19Zm-19,23.92a1.88,1.88,0,0,0-1.11.59,1.81,1.81,0,0,0-.68,1.41c0,1.11.71,1.8,2.13,2.08a25.86,25.86,0,0,0,5,.42,16.62,16.62,0,0,0,5.24-.57,1.91,1.91,0,0,0,1.5-1.8q0-1-1.26-1.47t-6.7-.51l-1.47,0a14.07,14.07,0,0,1-1.8-.07A5.36,5.36,0,0,0,86.33,58.75Zm4.84-21.07a4.05,4.05,0,0,0-2.93,1,3.5,3.5,0,0,0-1.06,2.67q0,3.77,4,3.76a4.15,4.15,0,0,0,3-1.1,3.6,3.6,0,0,0,1.11-2.66,3.66,3.66,0,0,0-1-2.58A4.1,4.1,0,0,0,91.17,37.68Z"/><path class="cls-14" d="M129.81,58.92h-7.28V45.08a20,20,0,0,0-.19-3.44,2.81,2.81,0,0,0-2.86-2.22c-2.56,0-3.83,1.88-3.83,5.66V58.92h-7.28V34.27h6.76v4.17a9.45,9.45,0,0,1,3.33-3.83,7.53,7.53,0,0,1,3.54-.86,8.25,8.25,0,0,1,5.66,1.89c1.43,1.27,2.15,3.74,2.15,7.44Z"/><path class="cls-14" d="M157.32,58.92h-7a17.29,17.29,0,0,1-.35-3.85,10.18,10.18,0,0,1-3.69,3.5,9.68,9.68,0,0,1-4.18.87,8.15,8.15,0,0,1-5.59-1.88,6.43,6.43,0,0,1-2.14-5.06,7.8,7.8,0,0,1,1.25-4.27,8.15,8.15,0,0,1,4-3.06q2.75-1.11,10-1.65V42.1q0-3.59-3.58-3.59-3.83,0-4.26,3.59l-6.71-.63a7.61,7.61,0,0,1,4-6,15.84,15.84,0,0,1,7.52-1.76,18.52,18.52,0,0,1,4.73.59,7.94,7.94,0,0,1,3.47,1.76,6.06,6.06,0,0,1,1.68,2.47,15.94,15.94,0,0,1,.44,4.56V54.31A17,17,0,0,0,157.32,58.92Zm-7.71-11.81q-7.62.75-7.62,4.61a3.38,3.38,0,0,0,.8,2.24,2.88,2.88,0,0,0,2.29.94,4,4,0,0,0,3.23-1.6,6.1,6.1,0,0,0,1.3-3.95Z"/><path class="cls-14" d="M187.52,34.83a9.1,9.1,0,0,0-1.93-.25,2.53,2.53,0,0,0-2.83,2.15,6.64,6.64,0,0,1,2,4.69A6.5,6.5,0,0,1,181.82,47c-1.94,1.38-4.75,2.07-8.41,2.07a19.23,19.23,0,0,1-3.81-.37,2.16,2.16,0,0,0-1.24,1.88,1.64,1.64,0,0,0,1,1.69,20.65,20.65,0,0,0,5.05.61,65,65,0,0,1,7.84.71,6.42,6.42,0,0,1,3.61,2,5.6,5.6,0,0,1,1.47,4,7,7,0,0,1-3.14,5.74q-3.13,2.34-11.12,2.35c-5,0-8.37-.55-10.11-1.63a4.77,4.77,0,0,1-2.61-4.12q0-3.3,4.22-4.45Q161.5,55.86,161.5,53q0-3.54,4.93-5.52-4.37-1.8-4.37-6a6.56,6.56,0,0,1,3-5.59q3-2.15,8.34-2.15a20,20,0,0,1,6.52,1.08,7,7,0,0,1,1.23-3.46c.68-.9,2.11-1.35,4.31-1.35a10.42,10.42,0,0,1,2.05.19Zm-19,23.92a1.94,1.94,0,0,0-1.11.59,1.83,1.83,0,0,0-.67,1.41c0,1.11.71,1.8,2.13,2.08a25.86,25.86,0,0,0,5,.42,16.5,16.5,0,0,0,5.23-.57,1.91,1.91,0,0,0,1.5-1.8c0-.64-.41-1.13-1.25-1.47s-3.07-.51-6.7-.51l-1.47,0a14.26,14.26,0,0,1-1.81-.07A5.09,5.09,0,0,0,168.5,58.75Zm4.85-21.07a4,4,0,0,0-2.93,1,3.5,3.5,0,0,0-1.06,2.67q0,3.77,4,3.76a4.16,4.16,0,0,0,3.05-1.1,3.6,3.6,0,0,0,1.11-2.66,3.66,3.66,0,0,0-1-2.58A4.11,4.11,0,0,0,173.35,37.68Z"/><path class="cls-14" d="M212.69,47.82H196.82c0,.43,0,.82,0,1.14a5.27,5.27,0,0,0,1.4,4,4.69,4.69,0,0,0,3.36,1.35c2.43,0,3.88-1.3,4.37-3.89l6.59.49q-2.76,8.55-11.2,8.55A12.48,12.48,0,0,1,195.05,58a11.7,11.7,0,0,1-4.24-4.31,13.08,13.08,0,0,1-1.68-6.79,13.38,13.38,0,0,1,3.36-9.49,11.86,11.86,0,0,1,16.8-.26Q212.7,40.47,212.69,47.82ZM196.8,43.59h8.76c-.22-3.38-1.61-5.08-4.17-5.08C198.66,38.51,197.13,40.21,196.8,43.59Z"/><path class="cls-14" d="M244.89,58.92l-8.22-27.17V58.92h-6.54V25.6h12.15l5.85,19.94,6.15-19.94h12.2V58.92h-7.86V31.75l-8.39,27.17Z"/><path class="cls-14" d="M294.29,58.92h-7.06a17.37,17.37,0,0,1-.34-3.85,10.33,10.33,0,0,1-3.69,3.5,9.72,9.72,0,0,1-4.19.87,8.16,8.16,0,0,1-5.59-1.88,6.42,6.42,0,0,1-2.13-5.06,7.79,7.79,0,0,1,1.24-4.27,8.15,8.15,0,0,1,4-3.06q2.75-1.11,10-1.65V42.1q0-3.59-3.58-3.59-3.81,0-4.26,3.59L272,41.47a7.64,7.64,0,0,1,4-6,15.84,15.84,0,0,1,7.52-1.76,18.46,18.46,0,0,1,4.73.59,7.88,7.88,0,0,1,3.47,1.76,6.19,6.19,0,0,1,1.69,2.47,16.32,16.32,0,0,1,.44,4.56V54.31A16.64,16.64,0,0,0,294.29,58.92Zm-7.72-11.81q-7.62.75-7.62,4.61a3.34,3.34,0,0,0,.81,2.24,2.84,2.84,0,0,0,2.28.94,4,4,0,0,0,3.23-1.6,6,6,0,0,0,1.3-3.95Z"/><path class="cls-14" d="M321.29,58.92H314V45.08a20,20,0,0,0-.19-3.44A2.81,2.81,0,0,0,311,39.42c-2.56,0-3.83,1.88-3.83,5.66V58.92h-7.28V34.27h6.76v4.17a9.51,9.51,0,0,1,3.32-3.83,7.59,7.59,0,0,1,3.54-.86,8.26,8.26,0,0,1,5.67,1.89c1.43,1.27,2.15,3.74,2.15,7.44Z"/><path class="cls-14" d="M348.8,58.92h-7.05a17.29,17.29,0,0,1-.35-3.85,10.18,10.18,0,0,1-3.69,3.5,9.68,9.68,0,0,1-4.18.87,8.15,8.15,0,0,1-5.59-1.88,6.39,6.39,0,0,1-2.14-5.06,7.8,7.8,0,0,1,1.25-4.27,8.17,8.17,0,0,1,4-3.06q2.76-1.11,10-1.65V42.1c0-2.39-1.2-3.59-3.58-3.59q-3.83,0-4.26,3.59l-6.71-.63a7.61,7.61,0,0,1,4-6A15.84,15.84,0,0,1,338,33.75a18.52,18.52,0,0,1,4.73.59,7.94,7.94,0,0,1,3.47,1.76,6.06,6.06,0,0,1,1.68,2.47,15.94,15.94,0,0,1,.44,4.56V54.31A17,17,0,0,0,348.8,58.92Zm-7.71-11.81q-7.62.75-7.62,4.61a3.38,3.38,0,0,0,.8,2.24,2.88,2.88,0,0,0,2.29.94,4,4,0,0,0,3.23-1.6,6.1,6.1,0,0,0,1.3-3.95Z"/><path class="cls-14" d="M379,34.83a9.1,9.1,0,0,0-1.93-.25,2.53,2.53,0,0,0-2.83,2.15,6.64,6.64,0,0,1,2,4.69A6.5,6.5,0,0,1,373.3,47c-1.94,1.38-4.75,2.07-8.41,2.07a19.23,19.23,0,0,1-3.81-.37,2.16,2.16,0,0,0-1.24,1.88,1.64,1.64,0,0,0,1.05,1.69,20.65,20.65,0,0,0,5.05.61,65.17,65.17,0,0,1,7.84.71,6.42,6.42,0,0,1,3.61,2,5.6,5.6,0,0,1,1.47,4,7,7,0,0,1-3.14,5.74q-3.14,2.34-11.12,2.35c-5,0-8.37-.55-10.11-1.63a4.77,4.77,0,0,1-2.61-4.12q0-3.3,4.22-4.45Q353,55.86,353,53q0-3.54,4.93-5.52-4.37-1.8-4.37-6a6.56,6.56,0,0,1,3-5.59q3-2.15,8.34-2.15a20,20,0,0,1,6.52,1.08,7,7,0,0,1,1.23-3.46c.68-.9,2.11-1.35,4.31-1.35a10.42,10.42,0,0,1,2.05.19ZM360,58.75a1.94,1.94,0,0,0-1.11.59,1.8,1.8,0,0,0-.67,1.41c0,1.11.71,1.8,2.13,2.08a25.86,25.86,0,0,0,5,.42,16.5,16.5,0,0,0,5.23-.57,1.91,1.91,0,0,0,1.5-1.8c0-.64-.41-1.13-1.25-1.47s-3.08-.51-6.71-.51l-1.46,0a14.16,14.16,0,0,1-1.81-.07A5.09,5.09,0,0,0,360,58.75Zm4.85-21.07a4,4,0,0,0-2.93,1,3.5,3.5,0,0,0-1.06,2.67q0,3.77,4,3.76a4.17,4.17,0,0,0,3.06-1.1A3.6,3.6,0,0,0,369,41.37a3.66,3.66,0,0,0-1-2.58A4.11,4.11,0,0,0,364.83,37.68Z"/><path class="cls-14" d="M404.17,47.82H388.3c0,.43,0,.82,0,1.14a5.27,5.27,0,0,0,1.4,4A4.69,4.69,0,0,0,393,54.29q3.63,0,4.37-3.89l6.59.49q-2.76,8.55-11.2,8.55A12.48,12.48,0,0,1,386.53,58a11.7,11.7,0,0,1-4.24-4.31,13.08,13.08,0,0,1-1.68-6.79A13.38,13.38,0,0,1,384,37.37a11.86,11.86,0,0,1,16.8-.26Q404.18,40.47,404.17,47.82Zm-15.89-4.23H397c-.22-3.38-1.62-5.08-4.17-5.08C390.13,38.51,388.6,40.21,388.28,43.59Z"/><path class="cls-14" d="M415.82,58.92h-7.06V34.27h6.67v4.59c1-3.42,2.8-5.13,5.32-5.13.36,0,.8,0,1.32.07V41a7.32,7.32,0,0,0-3.46.68,5,5,0,0,0-2,2.46,12,12,0,0,0-.78,4.77Z"/><rect class="cls-1" width="520" height="520"/></svg>